<svg version="1.1" id="logo-mini" xmlns="http://www.w3.org/2000/svg" xmlns:xlink="http://www.w3.org/1999/xlink" x="0px" y="0px"
   viewBox="0 0 146 52" style="enable-background:new 0 0 146 52;" xml:space="preserve">
<style type="text/css">
  .st0{fill:#FFFFFF;}
  .st1{display:none;}
  .st2{display:inline;fill:#FFFFFF;}
</style>
<title>Brasserie-mini</title>
<path class="st0" d="M141.7,47.9V16.2h0c0-0.1,0-0.2-0.1-0.3c0.1,0,0.1,0,0.2,0c0.6,0,1.2,0.5,1.2,1.2v30.9H141.7z M139.4,47.9V16.2
  c0-0.6,0.5-1.2,1.2-1.2c0.6,0,1.2,0.5,1.2,1.2v31.8H139.4z M141.4,16.2c0-0.5-0.4-0.9-0.9-0.9c-0.5,0-0.9,0.4-0.9,0.9v31.5h1.7V16.2
  z M141.1,15.9c-0.1,0-0.1,0.1-0.2,0.1c-0.1-0.1-0.2-0.2-0.3-0.2c-0.1,0-0.3,0.1-0.3,0.2c-0.1,0-0.1-0.1-0.2-0.1
  c0.1-0.2,0.3-0.3,0.5-0.3C140.8,15.6,141,15.7,141.1,15.9z M140.9,47.7V16.8c0-0.1,0.1-0.1,0.1-0.1c0.1,0,0.1,0.1,0.1,0.1v30.9
  H140.9z M135.3,47.9V16.2c0-0.6,0.5-1.2,1.2-1.2c0.6,0,1.2,0.5,1.2,1.2v31.8H135.3z M137.3,16.2c0-0.5-0.4-0.9-0.9-0.9
  s-0.9,0.4-0.9,0.9v31.5h1.7V16.2z M137,15.9c-0.1,0-0.1,0.1-0.2,0.1c-0.1-0.1-0.2-0.2-0.3-0.2c-0.1,0-0.3,0.1-0.3,0.2
  c-0.1,0-0.1-0.1-0.2-0.1c0.1-0.2,0.3-0.3,0.5-0.3C136.7,15.6,136.9,15.7,137,15.9z M136.8,47.7V16.8c0-0.1,0.1-0.1,0.1-0.1
  c0.1,0,0.1,0.1,0.1,0.1v30.9H136.8z M139.7,15.4V8h-0.1c0-0.1,0-0.2-0.1-0.3c0.1,0,0.2,0,0.2,0c0.6,0,1.2,0.5,1.2,1.2v6.3
  c-0.1-0.1-0.3-0.1-0.4-0.1C140.2,15.1,139.9,15.2,139.7,15.4z M138.9,47.7v-39c0-0.1,0.1-0.1,0.1-0.1c0.1,0,0.1,0.1,0.1,0.1v39
  H138.9z M139,7.8c-0.1,0-0.1,0.1-0.2,0.1c-0.1-0.1-0.2-0.2-0.3-0.2c-0.1,0-0.3,0.1-0.3,0.2c-0.1,0-0.1-0.1-0.2-0.1
  c0.1-0.2,0.3-0.3,0.5-0.3C138.8,7.5,139,7.6,139,7.8z M137.3,47.9V8c0-0.6,0.5-1.2,1.2-1.2c0.6,0,1.2,0.5,1.2,1.2v39.9H137.3z
   M139.4,8c0-0.5-0.4-0.9-0.9-0.9c-0.5,0-0.9,0.4-0.9,0.9v39.6h1.7V8z M9.8,47.9V16.2h0c0-0.1,0-0.2-0.1-0.3c0.1,0,0.1,0,0.2,0
  c0.6,0,1.2,0.5,1.2,1.2v30.9H9.8z M7.5,47.9V16.2C7.5,15.5,8,15,8.6,15c0.6,0,1.2,0.5,1.2,1.2v31.8H7.5z M9.5,16.2
  c0-0.5-0.4-0.9-0.9-0.9s-0.9,0.4-0.9,0.9v31.5h1.7V16.2z M9.2,15.9C9.1,16,9,16,9,16c-0.1-0.1-0.2-0.2-0.3-0.2
  c-0.1,0-0.3,0.1-0.3,0.2c-0.1,0-0.1-0.1-0.2-0.1c0.1-0.2,0.3-0.3,0.5-0.3C8.9,15.6,9.1,15.7,9.2,15.9z M9,47.7V16.8
  c0-0.1,0.1-0.1,0.1-0.1c0.1,0,0.1,0.1,0.1,0.1v30.9H9z M3.4,47.9V16.2c0-0.6,0.5-1.2,1.2-1.2c0.6,0,1.2,0.5,1.2,1.2v31.8H3.4z
   M5.4,16.2c0-0.5-0.4-0.9-0.9-0.9s-0.9,0.4-0.9,0.9v31.5h1.7V16.2z M5.1,15.9C5,16,5,16,4.9,16c-0.1-0.1-0.2-0.2-0.3-0.2
  c-0.1,0-0.3,0.1-0.3,0.2C4.2,16,4.1,16,4,15.9c0.1-0.2,0.3-0.3,0.5-0.3C4.8,15.6,5,15.7,5.1,15.9z M4.9,47.7V16.8
  c0-0.1,0.1-0.1,0.1-0.1c0.1,0,0.1,0.1,0.1,0.1v30.9H4.9z M7.8,15.4V8H7.7c0-0.1,0-0.2-0.1-0.3c0.1,0,0.2,0,0.2,0
  C8.5,7.7,9,8.2,9,8.9v6.3c-0.1-0.1-0.3-0.1-0.4-0.1C8.3,15.1,8,15.2,7.8,15.4z M6.9,47.7v-39c0-0.1,0.1-0.1,0.1-0.1
  c0.1,0,0.1,0.1,0.1,0.1v39H6.9z M7.1,7.8C7.1,7.9,7,7.9,6.9,7.9C6.9,7.8,6.7,7.7,6.6,7.7c-0.1,0-0.3,0.1-0.3,0.2
  c-0.1,0-0.1-0.1-0.2-0.1c0.1-0.2,0.3-0.3,0.5-0.3C6.8,7.5,7,7.6,7.1,7.8z M5.4,47.9V8c0-0.6,0.5-1.2,1.2-1.2c0.6,0,1.2,0.5,1.2,1.2
  v39.9H5.4z M7.5,8c0-0.5-0.4-0.9-0.9-0.9S5.7,7.6,5.7,8v39.6h1.7V8z M72.6,25.7c-0.2-0.2-0.6-0.3-1-0.3c0,0,0,0,0,0c0,0-1,0-1,0
  c0,0,0,0,0,0s0,0,0,0c0,0,0,0,0,0c0,0,0,0,0,0l0.3,0.1c0,0,0,0,0,0c0,0,0,0,0,0c0,0,0,0,0,0c0,0,0,0,0,0.1c0,0.1,0,0.1,0,0.2
  c0,0.1,0,0.2,0,0.3l0,0.8c0,0,0,0,0,0.1c0,0,0,0.1,0,0.2c0,0,0,0.1,0,0.1c0,0,0,0,0,0.1c0,0,0,0,0,0s0,0,0,0c0,0,0,0,0,0
  c0,0,0,0,0,0c0,0,0,0,0,0s0,0,0,0c0,0,0,0,0,0.1c0,0,0,0,0,0c0,0,0,0,0,0c0,0,0,0,0,0l-0.2,0.1c0,0,0,0,0,0c0,0,0,0,0,0c0,0,0,0,0,0
  c0,0,0,0,0,0h0.5c0,0,0,0,0.1,0c0,0,0.1,0,0.1,0l0.2,0c0,0,0,0,0,0c0,0,0,0,0,0c0,0,0,0,0,0s0,0,0,0c0.4,0,0.7-0.1,1-0.3
  c0.3-0.2,0.4-0.5,0.4-0.9C73,26.2,72.9,25.9,72.6,25.7z M72.5,27.3c-0.2,0.2-0.5,0.3-0.8,0.3c-0.2,0-0.3,0-0.4,0
  c-0.1,0-0.1-0.1-0.1-0.1l0-1.7c0-0.1,0-0.2,0.1-0.2c0.1,0,0.2,0,0.4,0c0.3,0,0.6,0.1,0.8,0.3s0.3,0.4,0.3,0.7
  C72.8,26.9,72.7,27.1,72.5,27.3z M75.8,25.4C75.8,25.4,75.8,25.4,75.8,25.4C75.8,25.4,75.8,25.4,75.8,25.4
  C75.8,25.4,75.8,25.4,75.8,25.4C75.8,25.4,75.8,25.3,75.8,25.4l-1-0.1c0,0,0,0,0,0c0,0,0,0,0,0c0,0,0,0,0,0c0,0,0,0,0,0c0,0,0,0,0,0
  c0,0,0,0,0,0l0.3,0.1c0,0,0,0,0,0c0,0,0.1,0,0.1,0.1c0,0,0,0.1,0,0.3c0,0,0,0.1,0,0.1c0,0,0,0,0,0.1l0,0.6c0,0.3-0.1,0.5-0.2,0.7
  c-0.1,0.1-0.3,0.2-0.5,0.2c-0.2,0-0.4-0.1-0.5-0.2c-0.1-0.1-0.2-0.4-0.2-0.7l0-0.5c0,0,0-0.1,0-0.1c0,0,0-0.1,0-0.1l0-0.2
  c0,0,0-0.1,0-0.1c0,0,0,0,0,0c0,0,0,0,0,0c0,0,0,0,0,0c0,0,0,0,0,0c0,0,0,0,0,0l0.3-0.1c0,0,0,0,0,0c0,0,0,0,0,0c0,0,0,0,0,0
  c0,0,0,0,0,0h-1c0,0,0,0,0,0c0,0,0,0,0,0c0,0,0,0,0,0c0,0,0,0,0,0l0.3,0.1c0,0,0.1,0.1,0.1,0.1c0,0.1,0,0.2,0,0.5v0.5c0,0,0,0,0,0
  c0,0,0,0,0,0c0,0.4,0.1,0.7,0.2,0.8c0.1,0.2,0.4,0.3,0.7,0.3c0.2,0,0.3,0,0.4-0.1c0.1-0.1,0.2-0.1,0.3-0.2c0,0,0,0,0,0c0,0,0,0,0,0
  c0.1-0.1,0.1-0.2,0.1-0.3c0-0.1,0-0.3,0-0.5l0-0.6v-0.2l0-0.1c0-0.1,0-0.1,0-0.1c0,0,0,0,0,0c0,0,0,0,0,0c0,0,0,0,0,0l0,0L75.8,25.4
  L75.8,25.4L75.8,25.4z M15.5,26.8v-0.5h50.9v0.5H15.5z M80,26.8v-0.5h50.9v0.5H80z M23.5,32.3l2.5,0.1c0.5,0,0.9,0.1,1.1,0.1
  c0.2,0.1,0.4,0.2,0.5,0.5c0,0,0,0.1,0.1,0.1c0,0,0,0.1,0.1,0.1l1,2.4c0,0.1,0.1,0.1,0.1,0.1c0,0,0.1,0,0.1,0c0.1,0,0.1,0,0.2-0.1
  c0,0,0-0.1,0-0.2l0-5.1c0-0.1,0-0.2-0.1-0.3c0-0.1-0.1-0.1-0.2-0.1c0,0-0.1,0-0.1,0c0,0,0,0-0.1,0l-0.2,0.1c-0.1,0-0.1,0.1-0.1,0.1
  c0,0-0.1,0-0.1,0.1c-0.3,0.2-0.6,0.3-1,0.3c-0.4,0-1,0.1-1.9,0.1h-6.2c-0.9,0-1.5,0-2-0.1c-0.4,0-0.8-0.1-0.9-0.2L16,30.2L15.9,30
  c0,0,0,0-0.1,0c0,0-0.1,0-0.1,0c-0.1,0-0.1,0-0.2,0.1c-0.1,0.1-0.1,0.1-0.1,0.2l0.1,5.2c0,0.1,0,0.2,0.1,0.2c0,0,0.1,0.1,0.2,0.1
  c0.1,0,0.1,0,0.1,0c0,0,0.1-0.1,0.1-0.1l1-2.6c0,0,0,0,0-0.1c0,0,0,0,0-0.1c0.1-0.2,0.2-0.3,0.3-0.4c0.1,0,0.3-0.1,0.7-0.1h3.1
  l0,12.2l0,0.8c0,0.2,0,0.4,0,0.5c0,0.1,0,0.2,0,0.2c0,0.1,0,0.1,0,0.2c0,0.1,0,0.1-0.1,0.1c0,0,0,0.1-0.1,0.1c0,0,0,0-0.1,0.1
  c-0.1,0-0.1,0-0.2,0.1c-0.1,0-0.1,0.1-0.2,0.1l-2.1,0.9c-0.1,0-0.1,0-0.2,0.1c0,0-0.1,0.1-0.1,0.1c0,0.1,0,0.1,0.1,0.2
  c0.1,0,0.1,0.1,0.2,0.1h7.7c0.1,0,0.2,0,0.2-0.1c0.1,0,0.1-0.1,0.1-0.2c0-0.1,0-0.1,0-0.1c0,0-0.1-0.1-0.2-0.1l-2-0.8
  c-0.1,0-0.2-0.1-0.2-0.1c-0.1,0-0.1-0.1-0.1-0.1c-0.1,0-0.1,0-0.1-0.1c0,0,0-0.1-0.1-0.1c0-0.1,0-0.3-0.1-0.6c0-0.3,0-0.8,0-1.4
  L23.5,32.3L23.5,32.3z M35.9,40c0.3,0,0.7-0.1,1.1-0.1c0.4,0,0.9,0,1.5,0h4.1l1.3,0c0.3,0,0.5,0,0.7,0c0.2,0,0.3,0,0.4,0
  c0,0,0.1,0,0.2,0c0.1,0,0.1,0,0.2,0l0,4.6c0,0,0,0.1,0,0.1c0,0,0,0.1,0,0.2c0,0.1,0,0.1,0,0.2c0,0.1,0,0.2,0,0.2c0,0.1,0,0.1,0,0.2
  c0,0.1,0,0.1,0,0.2c0,0.1,0,0.1,0,0.2c0,0.1,0,0.1,0,0.1c0,0.1,0,0.2,0,0.3c0,0.1-0.1,0.1-0.2,0.2c-0.1,0-0.1,0.1-0.2,0.1
  c-0.1,0-0.1,0.1-0.2,0.1l-1.8,0.7c-0.1,0-0.1,0-0.1,0.1c0,0,0,0.1,0,0.1c0,0.1,0,0.1,0.1,0.2c0,0,0.1,0.1,0.2,0.1h7.3
  c0.1,0,0.2,0,0.2-0.1c0,0,0.1-0.1,0.1-0.2c0-0.1,0-0.1,0-0.1c0,0-0.1-0.1-0.1-0.1l-1.8-0.7c-0.1-0.1-0.2-0.1-0.3-0.1
  c-0.1,0-0.1-0.1-0.2-0.1c0,0-0.1,0-0.1-0.1c0,0,0,0-0.1-0.1c0,0,0,0,0-0.1c0-0.1,0-0.2-0.1-0.4c0-0.2,0-0.5-0.1-0.9
  c0-0.1,0-0.2,0-0.4s0-0.5,0-0.9c0-0.2,0-0.4,0-0.7c0-0.2,0-0.5,0-0.8l-0.1-5.8c0-0.4,0-0.7,0-1c0-0.3,0-0.5,0-0.6c0-0.4,0-0.7,0-0.9
  c0-0.2,0-0.3,0-0.4c0-0.1,0-0.1,0-0.2c0-0.1,0-0.1,0-0.2c0-0.4,0-0.7,0.1-0.9c0-0.1,0.2-0.3,0.3-0.3c0,0,0,0,0.1,0c0,0,0,0,0.1,0
  l1.9-0.8c0.1,0,0.1-0.1,0.1-0.1c0,0,0-0.1,0-0.1c0-0.1,0-0.1-0.1-0.2c0,0-0.1-0.1-0.2-0.1h-7.3c-0.1,0-0.2,0-0.2,0.1
  c0,0-0.1,0.1-0.1,0.2c0,0.1,0,0.1,0,0.1c0,0,0.1,0.1,0.1,0.1l1.8,0.7c0.1,0.1,0.3,0.1,0.4,0.2c0.1,0.1,0.2,0.1,0.2,0.1
  c0.1,0.1,0.1,0.2,0.1,0.3c0,0.2,0,0.4,0,0.8l0.1,4.8c-0.3,0.1-0.7,0.1-1.1,0.1c-0.4,0-1,0-1.7,0h-4c-0.5,0-1,0-1.5,0
  c-0.5,0-0.9-0.1-1.2-0.1l0-4.7l0-0.4c0-0.1,0-0.3,0-0.3c0-0.1,0-0.2,0-0.2c0-0.1,0-0.1,0-0.1c0,0,0-0.1,0-0.1c0,0,0.1-0.1,0.2-0.1
  c0.1-0.1,0.2-0.1,0.3-0.2l1.8-0.7c0.1,0,0.1-0.1,0.2-0.1c0,0,0-0.1,0-0.1c0-0.1,0-0.1-0.1-0.2c-0.1,0-0.1-0.1-0.2-0.1H31
  c-0.1,0-0.2,0-0.2,0.1c-0.1,0-0.1,0.1-0.1,0.2c0,0.1,0,0.1,0.1,0.1c0,0,0.1,0.1,0.1,0.1l1.9,0.7c0.1,0.1,0.3,0.1,0.3,0.2
  c0.1,0.1,0.2,0.1,0.2,0.2c0,0.1,0.1,0.2,0.1,0.4c0,0.2,0,0.5,0.1,0.9l0,1.4c0,0.3,0,0.5,0,0.8c0,0.2,0,0.5,0,0.7l0.1,6.2
  c0,0.2,0,0.5,0,0.7c0,0.2,0,0.5,0,0.7l0,1.3c0,0.4,0,0.7-0.1,0.9c0,0.2-0.1,0.3-0.1,0.4c0,0,0,0,0,0.1c0,0,0,0,0,0.1
  c-0.1,0-0.1,0-0.2,0.1c-0.1,0-0.2,0.1-0.3,0.1L31,47.5c-0.1,0-0.1,0-0.1,0.1c0,0-0.1,0.1-0.1,0.2c0,0.1,0,0.1,0.1,0.2
  c0.1,0,0.1,0.1,0.2,0.1h7.3c0.1,0,0.2,0,0.2-0.1c0,0,0.1-0.1,0.1-0.2c0-0.1,0-0.1,0-0.1c0,0-0.1-0.1-0.1-0.1l-1.9-0.7
  c0,0-0.1,0-0.1,0c0,0,0,0-0.1,0c-0.2-0.1-0.4-0.2-0.4-0.3C36,46.2,36,46,36,45.6c0-0.1,0-0.2,0-0.3s0-0.1,0-0.1L35.9,40L35.9,40
  L35.9,40z M57.6,32.2c0.2,0,0.3,0,0.4,0c0.1,0,0.2,0,0.2,0c0.5,0,0.9,0,1.2,0c0.3,0,0.4,0,0.4,0c1,0,1.7,0,2.1,0
  c0.4,0,0.6,0.1,0.8,0.2c0.1,0.1,0.3,0.2,0.4,0.3c0.1,0.2,0.2,0.4,0.3,0.7l0.5,1.3c0,0.1,0.1,0.1,0.1,0.1c0,0,0.1,0,0.1,0
  c0.1,0,0.1,0,0.2-0.1c0-0.1,0.1-0.1,0.1-0.2l-0.1-4.3c-0.6,0.1-1.3,0.1-2.1,0.2c-0.8,0.1-1.7,0.1-2.6,0.1c-0.5,0-1,0-1.4,0
  c-0.5,0-5.1,0-5.2,0c-0.1,0-0.1,0-0.2,0c-0.2,0-0.3,0-0.4,0.1c-0.1,0-0.1,0.1-0.1,0.2c0,0.1,0,0.1,0.1,0.1c0,0,0.1,0.1,0.2,0.1
  l1.4,0.5c0.1,0,0.2,0.1,0.3,0.1c0.1,0,0.2,0.1,0.2,0.1c0.1,0,0.1,0,0.1,0.1c0,0,0.1,0,0.1,0.1c0.1,0,0.1,0,0.2,0.1
  c0.1,0,0.1,0.1,0.1,0.1c0,0.1,0.1,0.2,0.1,0.3c0,0.1,0,0.4,0,0.7c0,0.1,0,0.2,0,0.3c0,0.1,0,0.3,0,0.4l0.1,2c0,0.5,0,0.9,0,1.3
  c0,0.3,0,0.5,0,0.7l0,3.2l0,2.1c0,0.4,0,0.7,0,1c0,0.3,0,0.4,0,0.6l0,1.2c0,0.2,0,0.3-0.1,0.5c-0.1,0.1-0.2,0.2-0.4,0.3
  c-0.1,0.1-0.2,0.1-0.3,0.2c-0.1,0.1-0.3,0.1-0.4,0.2l-1.4,0.5c-0.1,0-0.1,0-0.2,0.1c0,0-0.1,0.1-0.1,0.1c0,0.1,0,0.1,0.1,0.2
  c0.1,0,0.1,0.1,0.2,0.1h11.1c0.5,0,0.8-0.1,0.9-0.2c0.1-0.2,0.2-0.5,0.2-1.1l0.1-2.7c0-0.1,0-0.2,0-0.2c0,0-0.1-0.1-0.2-0.1
  c-0.1,0-0.1,0-0.1,0s-0.1,0.1-0.1,0.1l-0.6,1.4c0,0,0,0.1-0.1,0.1c0,0,0,0.1-0.1,0.1c-0.2,0.4-0.5,0.6-0.8,0.7
  c-0.3,0.1-1,0.1-2.1,0.1c-0.8,0-1.5,0-2.1,0c-0.6,0-0.9-0.1-0.9-0.1c-0.1-0.1-0.1-0.2-0.2-0.5c0-0.3-0.1-0.7-0.1-1.4v-4.4
  c0.1,0,0.3,0,0.3,0c0.1,0,0.2,0,0.2,0c0.1,0,0.2,0,0.4,0c0.2,0,0.5,0,0.9,0c0.4,0,0.7,0,0.9,0c0.2,0,0.4,0,0.4,0c0.1,0,0.2,0,0.3,0
  c0.1,0,0.1,0,0.1,0c0.2,0,0.4,0,0.5,0.1c0.1,0,0.2,0.1,0.3,0.2c0.1,0.1,0.1,0.2,0.2,0.2c0.1,0.1,0.1,0.2,0.2,0.3l0.6,1.4
  c0,0.1,0.1,0.1,0.1,0.1c0,0,0.1,0,0.1,0c0.1,0,0.1,0,0.2-0.1c0,0,0-0.1,0-0.2l0-5.4c0-0.1,0-0.2,0-0.2c0-0.1-0.1-0.1-0.1-0.1
  c0,0,0,0,0,0c0,0,0,0,0,0c0,0,0,0-0.1,0c0,0,0,0.1-0.1,0.1l-0.5,0.8c0,0,0,0,0,0.1c0,0,0,0,0,0.1c-0.2,0.3-0.4,0.4-0.7,0.5
  c-0.3,0.1-0.9,0.1-1.8,0.1c-0.3,0-0.7,0-1,0c-0.4,0-0.8,0-1.2,0L57.6,32.2L57.6,32.2z M78.2,41.2l1.7,4.4c0.1,0.2,0.1,0.3,0.1,0.4
  c0,0.1,0.1,0.2,0.1,0.3c0,0.1,0,0.1,0,0.2c0,0,0,0.1-0.1,0.1c0,0-0.1,0.1-0.2,0.1c-0.1,0-0.2,0.1-0.3,0.1l-1.6,0.6
  c-0.1,0-0.1,0-0.2,0.1c0,0-0.1,0.1-0.1,0.1c0,0.1,0,0.2,0.1,0.2c0.1,0,0.1,0.1,0.2,0.1h6.9c0.1,0,0.2,0,0.2-0.1
  c0.1,0,0.1-0.1,0.1-0.2c0,0,0-0.1,0-0.1c0,0,0,0-0.1-0.1c0,0,0,0-0.1,0c0,0,0,0-0.1,0l-1.3-0.6c-0.1-0.1-0.3-0.1-0.3-0.2
  c-0.1,0-0.2-0.1-0.2-0.1c0,0-0.1-0.1-0.1-0.1c0,0,0-0.1-0.1-0.1c0,0,0,0,0-0.1c0,0,0,0,0-0.1c-0.1-0.2-0.3-0.6-0.5-1.2
  c-0.3-0.6-0.5-1.2-0.8-1.9c0-0.1-0.1-0.2-0.1-0.2c0-0.1-0.1-0.2-0.1-0.2l-3.3-8.2c-0.1-0.3-0.3-0.7-0.4-1c-0.1-0.3-0.2-0.6-0.3-0.9
  c-0.1-0.2-0.2-0.5-0.2-0.7c-0.1-0.2-0.1-0.5-0.2-0.7c-0.1-0.1-0.1-0.3-0.1-0.4c0-0.1-0.1-0.3-0.1-0.4l-1.9,0l-0.1,0.4
  c-0.1,0.4-0.2,0.9-0.4,1.4c-0.2,0.5-0.3,1-0.5,1.6c-0.1,0.2-0.1,0.4-0.2,0.6c-0.1,0.2-0.2,0.4-0.2,0.6c-0.1,0.1-0.1,0.2-0.1,0.3
  c0,0.1-0.1,0.2-0.1,0.3l-3.4,8.6c-0.1,0.2-0.2,0.4-0.2,0.6c-0.1,0.2-0.1,0.3-0.2,0.4L68.9,46c0,0.1,0,0.1-0.1,0.1c0,0,0,0.1-0.1,0.1
  c0,0.1-0.1,0.1-0.1,0.1c0,0-0.1,0.1-0.1,0.1c-0.1,0-0.1,0.1-0.2,0.1c-0.1,0-0.2,0.1-0.3,0.1l-1.5,0.7c0,0-0.1,0-0.1,0c0,0,0,0-0.1,0
  c0,0-0.1,0-0.1,0.1c0,0,0,0.1,0,0.1c0,0.1,0,0.2,0.1,0.2c0.1,0,0.1,0.1,0.2,0.1h6.5c0.1,0,0.2,0,0.2-0.1c0.1,0,0.1-0.1,0.1-0.2
  c0,0,0-0.1,0-0.1c0,0,0,0-0.1-0.1c0,0,0,0-0.1,0c0,0,0,0-0.1,0l-1.6-0.7c-0.1-0.1-0.2-0.1-0.3-0.1c-0.1,0-0.1-0.1-0.2-0.1
  c0,0-0.1,0-0.1-0.1c0,0,0-0.1,0-0.1c0,0,0-0.1,0-0.1c0,0,0-0.1,0-0.1l0.2-0.5l1.6-4.3c0.6,0,1.1-0.1,1.5-0.1c0.4,0,0.8,0,1.1,0
  c0.3,0,0.7,0,1.1,0C77.1,41.1,77.6,41.1,78.2,41.2L78.2,41.2z M77.5,39.4c-0.4,0-0.7,0-1,0c-0.3,0-0.5,0-0.7,0c-0.3,0-0.6,0-0.9,0
  c-0.3,0-0.8,0-1.3-0.1l1.9-4.9L77.5,39.4L77.5,39.4z M93.9,32.3l2.5,0.1c0.5,0,0.9,0.1,1.1,0.1c0.2,0.1,0.4,0.2,0.5,0.5
  c0,0,0,0.1,0.1,0.1c0,0,0,0.1,0.1,0.1l1,2.4c0,0.1,0.1,0.1,0.1,0.1c0,0,0.1,0,0.1,0c0.1,0,0.1,0,0.2-0.1c0,0,0-0.1,0-0.2l0-5.1
  c0-0.1,0-0.2-0.1-0.3c0-0.1-0.1-0.1-0.2-0.1c0,0-0.1,0-0.1,0c0,0,0,0-0.1,0l-0.2,0.1c-0.1,0-0.1,0.1-0.1,0.1c0,0-0.1,0-0.1,0.1
  c-0.3,0.2-0.6,0.3-1,0.3c-0.4,0-1,0.1-1.9,0.1h-6.2c-0.9,0-1.5,0-2-0.1c-0.4,0-0.8-0.1-0.9-0.2l-0.3-0.2L86.3,30c0,0,0,0-0.1,0
  c0,0-0.1,0-0.1,0c-0.1,0-0.1,0-0.2,0.1c-0.1,0.1-0.1,0.1-0.1,0.2l0.1,5.2c0,0.1,0,0.2,0.1,0.2c0,0,0.1,0.1,0.2,0.1
  c0.1,0,0.1,0,0.1,0c0,0,0.1-0.1,0.1-0.1l1-2.6c0,0,0,0,0-0.1c0,0,0,0,0-0.1c0.1-0.2,0.2-0.3,0.3-0.4c0.1,0,0.3-0.1,0.7-0.1h3.1
  l0,12.2l0,0.8c0,0.2,0,0.4,0,0.5c0,0.1,0,0.2,0,0.2c0,0.1,0,0.1,0,0.2c0,0.1,0,0.1-0.1,0.1c0,0,0,0.1-0.1,0.1c0,0,0,0-0.1,0.1
  c-0.1,0-0.1,0-0.2,0.1c-0.1,0-0.1,0.1-0.2,0.1l-2.1,0.9c-0.1,0-0.1,0-0.2,0.1c0,0-0.1,0.1-0.1,0.1c0,0.1,0,0.1,0.1,0.2
  c0.1,0,0.1,0.1,0.2,0.1h7.7c0.1,0,0.2,0,0.2-0.1c0.1,0,0.1-0.1,0.1-0.2c0-0.1,0-0.1,0-0.1c0,0-0.1-0.1-0.2-0.1l-2-0.8
  c-0.1,0-0.2-0.1-0.2-0.1c-0.1,0-0.1-0.1-0.1-0.1c-0.1,0-0.1,0-0.1-0.1c0,0,0-0.1-0.1-0.1c0-0.1,0-0.3-0.1-0.6c0-0.3,0-0.8,0-1.4
  L93.9,32.3L93.9,32.3z M106.3,40.4h0.1l4.7,4.8c0.6,0.6,1.1,1.1,1.5,1.5c0.4,0.4,0.8,0.7,1.2,0.9c0.4,0.2,0.7,0.3,1.2,0.3
  c0.4,0.1,0.9,0.1,1.5,0.1c0.4,0,0.7,0,0.9-0.1c0.2-0.1,0.2-0.2,0.2-0.3c0-0.1,0-0.1,0-0.2c0,0-0.1-0.1-0.1-0.1
  c-0.1,0-0.1-0.1-0.2-0.1c-0.1,0-0.1-0.1-0.2-0.1c-0.2-0.1-0.4-0.2-0.6-0.2c-0.2-0.1-0.4-0.2-0.6-0.3c-0.3-0.2-0.7-0.5-1-0.8
  c-0.3-0.3-0.8-0.7-1.2-1.3l-4.3-4.3c1.3-0.3,2.3-0.9,3.1-1.7c0.8-0.8,1.1-1.8,1.1-3c0-1.6-0.5-2.8-1.5-3.6c-1-0.8-2.5-1.2-4.5-1.2
  l-6.1,0.1c-0.1,0-0.1,0-0.2,0.1c-0.1,0-0.1,0.1-0.1,0.2c0,0.1,0,0.1,0,0.1c0,0,0.1,0.1,0.1,0.1l1.9,0.7c0.1,0.1,0.2,0.1,0.3,0.1
  c0.1,0,0.1,0.1,0.2,0.1c0,0,0.1,0.1,0.1,0.1c0,0.1,0,0.1,0,0.2c0,0.1,0,0.1,0,0.3c0,0.1,0,0.3,0,0.5l0.1,1.1c0,0.1,0,0.2,0,0.4
  s0,0.4,0,0.6l0.1,7.1c0,0.4,0,0.7,0,1c0,0.3,0,0.5,0,0.8l0,1.2c0,0.1,0,0.2,0,0.3c0,0.1,0,0.2,0,0.2c0,0.1,0,0.1,0,0.2
  c0,0.1,0,0.1,0,0.1c0,0.1,0,0.1,0,0.2c0,0.1,0,0.1,0,0.1l0,0c0,0,0,0,0,0c0,0,0,0,0,0c0,0-0.1,0-0.1,0.1c-0.1,0-0.1,0.1-0.2,0.1
  l-2,0.9c-0.1,0-0.1,0-0.2,0.1c0,0-0.1,0.1-0.1,0.1c0,0.1,0,0.1,0.1,0.2c0.1,0,0.1,0.1,0.2,0.1h7.5c0.1,0,0.2,0,0.2-0.1
  c0.1-0.1,0.1-0.1,0.1-0.2c0-0.1,0-0.1-0.1-0.1c0,0-0.1-0.1-0.1-0.1l-1.9-0.7c0,0,0,0,0,0c0,0,0,0,0,0c-0.1,0-0.1,0-0.2-0.1
  c-0.1,0-0.1-0.1-0.2-0.1c0,0-0.1,0-0.1-0.1c0,0,0,0-0.1-0.1l0,0c0,0,0-0.1,0-0.1c0,0,0-0.1,0-0.2c0-0.1,0-0.1,0-0.2
  c0-0.1,0-0.1,0-0.2L106.3,40.4L106.3,40.4L106.3,40.4L106.3,40.4L106.3,40.4L106.3,40.4z M106.3,38.9v-5.7c0-0.4,0.1-0.7,0.3-0.8
  c0.2-0.1,0.5-0.2,1.1-0.2c0.9,0,1.7,0.3,2.4,0.9c0.6,0.6,1,1.4,1,2.3c0,1.1-0.4,1.9-1.1,2.5c-0.7,0.6-1.8,0.9-3.1,1H106.3
  L106.3,38.9z M123.6,32.2c0.2,0,0.3,0,0.4,0c0.1,0,0.2,0,0.2,0c0.5,0,0.9,0,1.2,0c0.3,0,0.4,0,0.4,0c1,0,1.7,0,2.1,0
  c0.4,0,0.6,0.1,0.8,0.2c0.1,0.1,0.3,0.2,0.4,0.3c0.1,0.2,0.2,0.4,0.3,0.7l0.5,1.3c0,0.1,0.1,0.1,0.1,0.1c0,0,0.1,0,0.1,0
  c0.1,0,0.1,0,0.2-0.1c0-0.1,0.1-0.1,0.1-0.2l-0.1-4.3c-0.6,0.1-1.3,0.1-2.1,0.2c-0.8,0.1-1.7,0.1-2.6,0.1c-0.5,0-1,0-1.4,0
  c-0.5,0-0.9,0-1.3,0c0,0-0.2,0-0.6,0c-0.4,0-0.9,0-1.5,0c-0.4,0-0.8,0-1,0s-0.4,0-0.5,0c-0.1,0-0.1,0-0.2,0c-0.1,0-0.1,0-0.2,0
  c-0.2,0-0.3,0-0.4,0.1c-0.1,0-0.1,0.1-0.1,0.2c0,0.1,0,0.1,0.1,0.1c0,0,0.1,0.1,0.2,0.1l1.4,0.5c0.1,0,0.2,0.1,0.3,0.1
  c0.1,0,0.2,0.1,0.2,0.1c0.1,0,0.1,0,0.1,0.1c0,0,0.1,0,0.1,0.1c0.1,0,0.1,0,0.2,0.1c0.1,0,0.1,0.1,0.1,0.1c0,0.1,0.1,0.2,0.1,0.3
  c0,0.1,0,0.4,0,0.7c0,0.1,0,0.2,0,0.3c0,0.1,0,0.3,0,0.4l0.1,2c0,0.5,0,0.9,0,1.3c0,0.3,0,0.5,0,0.7l0,3.2l0,2.1c0,0.4,0,0.7,0,1
  c0,0.3,0,0.4,0,0.6l0,1.2c0,0.2,0,0.3-0.1,0.5c-0.1,0.1-0.2,0.2-0.4,0.3c-0.1,0.1-0.2,0.1-0.3,0.2c-0.1,0.1-0.3,0.1-0.4,0.2
  l-1.4,0.5c-0.1,0-0.1,0-0.2,0.1c0,0-0.1,0.1-0.1,0.1c0,0.1,0,0.1,0.1,0.2c0.1,0,0.1,0.1,0.2,0.1h11.1c0.5,0,0.8-0.1,0.9-0.2
  c0.1-0.2,0.2-0.5,0.2-1.1l0.1-2.7c0-0.1,0-0.2,0-0.2c0,0-0.1-0.1-0.2-0.1c-0.1,0-0.1,0-0.1,0s-0.1,0.1-0.1,0.1l-0.6,1.4
  c0,0,0,0.1-0.1,0.1c0,0,0,0.1-0.1,0.1c-0.2,0.4-0.5,0.6-0.8,0.7c-0.3,0.1-1,0.1-2.1,0.1c-0.8,0-1.5,0-2.1,0c-0.6,0-0.9-0.1-0.9-0.1
  c-0.1-0.1-0.1-0.2-0.2-0.5c0-0.3-0.1-0.7-0.1-1.4v-4.4c0.1,0,0.3,0,0.3,0c0.1,0,0.2,0,0.2,0c0.1,0,0.2,0,0.4,0c0.2,0,0.5,0,0.9,0
  c0.4,0,0.7,0,0.9,0c0.2,0,0.4,0,0.4,0c0.1,0,0.2,0,0.3,0c0.1,0,0.1,0,0.1,0c0.2,0,0.4,0,0.5,0.1c0.1,0,0.2,0.1,0.3,0.2
  c0.1,0.1,0.1,0.2,0.2,0.2c0.1,0.1,0.1,0.2,0.2,0.3l0.6,1.4c0,0.1,0.1,0.1,0.1,0.1c0,0,0.1,0,0.1,0c0.1,0,0.1,0,0.2-0.1
  c0,0,0-0.1,0-0.2l0-5.4c0-0.1,0-0.2,0-0.2c0-0.1-0.1-0.1-0.1-0.1c0,0,0,0,0,0c0,0,0,0,0,0c0,0,0,0-0.1,0c0,0,0,0.1-0.1,0.1l-0.5,0.8
  c0,0,0,0,0,0.1c0,0,0,0,0,0.1c-0.2,0.3-0.4,0.4-0.7,0.5c-0.3,0.1-0.9,0.1-1.8,0.1c-0.3,0-0.7,0-1,0c-0.4,0-0.8,0-1.2,0L123.6,32.2
  L123.6,32.2z M23.8,14.3c0.9-0.5,1.6-1,1.9-1.6c0.4-0.6,0.6-1.2,0.6-2c0-1.1-0.4-2-1.2-2.6c-0.8-0.6-1.9-1-3.3-1c-0.1,0-0.3,0-0.5,0
  c-0.2,0-0.6,0-1,0c-0.2,0-0.4,0-0.6,0c-0.2,0-0.5,0-0.9,0c-0.2,0-0.4,0-0.6,0c-0.2,0-0.4,0-0.5,0c-0.2,0-0.3,0-0.4,0
  c-0.1,0-0.2,0-0.4,0l-1.2,0c-0.2,0-0.3,0-0.3,0c-0.1,0-0.1,0.1-0.1,0.2c0,0,0,0.1,0,0.1c0,0,0.1,0.1,0.1,0.1l1.7,0.6
  c0.1,0,0.2,0.1,0.2,0.1c0.1,0,0.1,0.1,0.1,0.1c0,0,0.1,0.2,0.1,0.3c0,0.2,0,0.5,0.1,0.9l0.1,1.2c0,0.1,0,0.2,0,0.3
  c0,0.1,0,0.2,0,0.3c0,0.1,0,0.2,0,0.4c0,0.1,0,0.3,0,0.4l0,5.1c0,0.1,0,0.2,0,0.3c0,0.1,0,0.2,0,0.4c0,0.7,0,1.2,0,1.6
  c0,0.4,0,0.7-0.1,1c0,0,0,0.1,0,0.1c0,0,0,0,0,0.1c0,0.1,0,0.2-0.1,0.3c0,0.1-0.1,0.1-0.2,0.2c-0.1,0-0.1,0.1-0.2,0.1
  c-0.1,0-0.2,0.1-0.3,0.1l-1.5,0.6c-0.1,0-0.1,0-0.1,0.1c0,0,0,0.1,0,0.1c0,0.1,0,0.1,0.1,0.1c0,0,0.1,0,0.2,0l4.9,0c0,0,0.1,0,0.1,0
  c0,0,0.1,0,0.1,0c2.1,0,3.7-0.4,4.8-1.1c1.1-0.8,1.7-1.9,1.7-3.3c0-1-0.3-1.8-0.9-2.5C25.9,15,25,14.6,23.8,14.3L23.8,14.3z
   M20,15.4c0.1,0,0.2,0,0.3,0c0.1,0,0.2,0,0.2,0c0.1,0,0.1,0,0.2,0c0.1,0,0.2,0,0.2,0c1.4,0,2.4,0.2,3.1,0.7c0.7,0.5,1,1.2,1,2.2
  c0,0.9-0.3,1.6-1,2.2c-0.6,0.6-1.5,0.8-2.5,0.8c-0.7,0-1.2-0.1-1.3-0.2c-0.2-0.1-0.3-0.4-0.3-0.8L20,15.4L20,15.4z M20,13.9V9.1
  c0-0.2,0.1-0.4,0.3-0.4c0.2-0.1,0.6-0.1,1.1-0.1c0.9,0,1.6,0.2,2.1,0.6c0.5,0.4,0.7,1,0.7,1.8c0,0.9-0.3,1.6-1,2.1
  c-0.7,0.5-1.6,0.8-2.7,0.8c0,0-0.1,0-0.1,0c0,0-0.1,0-0.1,0c0,0-0.1,0-0.1,0C20.1,13.9,20.1,13.9,20,13.9L20,13.9z M32.3,15.9h0.1
  l4.2,4.3c0.5,0.6,1,1,1.3,1.3c0.4,0.3,0.7,0.6,1.1,0.8c0.3,0.2,0.7,0.3,1,0.3c0.4,0.1,0.8,0.1,1.3,0.1c0.4,0,0.6,0,0.8-0.1
  c0.1-0.1,0.2-0.1,0.2-0.3c0-0.1,0-0.1,0-0.1c0,0-0.1-0.1-0.1-0.1c0,0-0.1-0.1-0.2-0.1c-0.1,0-0.1,0-0.2-0.1
  c-0.2-0.1-0.4-0.1-0.5-0.2c-0.2-0.1-0.3-0.2-0.5-0.3c-0.3-0.2-0.6-0.4-0.9-0.7c-0.3-0.3-0.7-0.7-1.1-1.1L35,15.7
  c1.2-0.3,2.1-0.8,2.8-1.5c0.7-0.7,1-1.6,1-2.7c0-1.4-0.5-2.5-1.4-3.2c-0.9-0.7-2.2-1.1-4-1.1l-5.5,0c-0.1,0-0.1,0-0.2,0.1
  c-0.1,0-0.1,0.1-0.1,0.2c0,0,0,0.1,0,0.1c0,0,0.1,0.1,0.1,0.1l1.7,0.6c0.1,0,0.2,0.1,0.3,0.1c0.1,0,0.1,0.1,0.2,0.1
  c0,0,0,0.1,0.1,0.1c0,0,0,0.1,0,0.2c0,0,0,0.1,0,0.2c0,0.1,0,0.3,0,0.4l0,1c0,0.1,0,0.2,0,0.3c0,0.1,0,0.3,0,0.5l0,6.3
  c0,0.3,0,0.6,0,0.9c0,0.2,0,0.5,0,0.7l0,1.1c0,0.1,0,0.2,0,0.3c0,0.1,0,0.2,0,0.2c0,0.1,0,0.1,0,0.2c0,0.1,0,0.1,0,0.1
  c0,0,0,0.1,0,0.1c0,0,0,0.1,0,0.1l0,0c0,0,0,0,0,0c0,0,0,0,0,0c0,0-0.1,0-0.1,0c-0.1,0-0.1,0-0.2,0.1l-1.8,0.8c-0.1,0-0.1,0-0.1,0.1
  c0,0,0,0.1,0,0.1c0,0.1,0,0.1,0.1,0.1c0,0,0.1,0,0.2,0h6.7c0.1,0,0.1,0,0.2-0.1c0,0,0.1-0.1,0.1-0.2c0,0,0-0.1,0-0.1
  c0,0-0.1-0.1-0.1-0.1l-1.7-0.6c0,0,0,0,0,0c0,0,0,0,0,0c-0.1,0-0.1,0-0.2-0.1c-0.1,0-0.1-0.1-0.2-0.1c0,0-0.1,0-0.1-0.1
  c0,0,0,0-0.1-0.1l0,0c0,0,0-0.1,0-0.1c0,0,0-0.1,0-0.2c0,0,0-0.1,0-0.1s0-0.1,0-0.2L32.3,15.9L32.3,15.9L32.3,15.9L32.3,15.9
  L32.3,15.9L32.3,15.9z M32.3,14.5V9.4c0-0.4,0.1-0.6,0.2-0.7c0.1-0.1,0.5-0.1,1-0.1c0.8,0,1.6,0.3,2.1,0.8c0.6,0.5,0.9,1.2,0.9,2
  c0,1-0.3,1.7-1,2.2c-0.7,0.5-1.6,0.8-2.8,0.9H32.3L32.3,14.5z M53.9,16.6l1.5,3.9c0,0.1,0.1,0.3,0.1,0.4c0,0.1,0,0.2,0,0.3
  c0,0.1,0,0.1,0,0.1c0,0,0,0.1-0.1,0.1c0,0-0.1,0.1-0.1,0.1c-0.1,0-0.1,0.1-0.3,0.1l-1.4,0.6c-0.1,0-0.1,0-0.1,0.1c0,0,0,0.1,0,0.1
  c0,0.1,0,0.1,0.1,0.2c0,0,0.1,0.1,0.2,0.1h6.1c0.1,0,0.2,0,0.2-0.1c0,0,0.1-0.1,0.1-0.2c0,0,0-0.1,0-0.1c0,0,0,0-0.1-0.1
  c0,0,0,0,0,0c0,0,0,0-0.1,0l-1.2-0.5c-0.1-0.1-0.2-0.1-0.3-0.1c-0.1,0-0.1-0.1-0.2-0.1c0,0-0.1-0.1-0.1-0.1c0,0,0,0-0.1-0.1
  c0,0,0,0,0,0c0,0,0,0,0,0c-0.1-0.2-0.3-0.5-0.5-1c-0.2-0.5-0.5-1.1-0.7-1.7c0-0.1-0.1-0.1-0.1-0.2c0-0.1-0.1-0.1-0.1-0.2l-2.9-7.3
  c-0.1-0.3-0.2-0.6-0.3-0.9c-0.1-0.3-0.2-0.6-0.3-0.8c-0.1-0.2-0.1-0.4-0.2-0.6c-0.1-0.2-0.1-0.4-0.2-0.6c0-0.1-0.1-0.2-0.1-0.4
  c0-0.1-0.1-0.2-0.1-0.4l-1.7,0l-0.1,0.3c-0.1,0.4-0.2,0.8-0.4,1.2C50.3,9,50.2,9.4,50,9.9c-0.1,0.2-0.1,0.3-0.2,0.5
  c-0.1,0.2-0.1,0.4-0.2,0.5c0,0.1-0.1,0.2-0.1,0.3c0,0.1-0.1,0.2-0.1,0.3l-3,7.7c-0.1,0.2-0.1,0.4-0.2,0.5c-0.1,0.2-0.1,0.3-0.2,0.3
  l-0.3,0.8c0,0,0,0.1-0.1,0.1c0,0,0,0.1-0.1,0.1c0,0-0.1,0.1-0.1,0.1c0,0-0.1,0.1-0.1,0.1c-0.1,0-0.1,0.1-0.2,0.1
  c-0.1,0-0.2,0.1-0.3,0.1l-1.3,0.6c0,0-0.1,0-0.1,0c0,0,0,0,0,0c0,0-0.1,0-0.1,0.1c0,0,0,0,0,0.1c0,0.1,0,0.1,0.1,0.2
  c0.1,0,0.1,0.1,0.2,0.1h5.8c0.1,0,0.2,0,0.2-0.1c0,0,0.1-0.1,0.1-0.2c0,0,0-0.1,0-0.1c0,0,0,0-0.1-0.1c0,0,0,0,0,0c0,0,0,0-0.1,0
  l-1.4-0.6c-0.1,0-0.2-0.1-0.3-0.1c-0.1,0-0.1-0.1-0.1-0.1c0,0-0.1,0-0.1-0.1c0,0,0-0.1,0-0.1c0,0,0-0.1,0-0.1c0,0,0-0.1,0-0.1
  l0.2-0.5l1.4-3.9c0.5,0,1,0,1.4-0.1c0.4,0,0.7,0,0.9,0c0.3,0,0.6,0,1,0C52.9,16.5,53.4,16.5,53.9,16.6L53.9,16.6z M53.3,15
  c-0.3,0-0.6,0-0.9,0c-0.3,0-0.5,0-0.6,0c-0.2,0-0.5,0-0.8,0c-0.3,0-0.7,0-1.2,0l1.7-4.3L53.3,15L53.3,15z M69.2,7.4
  c-0.2-0.1-0.5-0.1-0.7-0.2c-0.2-0.1-0.4-0.1-0.7-0.1c-0.3,0-0.6-0.1-0.8-0.1c-0.3,0-0.6,0-0.9,0c-1.6,0-2.9,0.4-3.9,1.2
  c-1,0.8-1.5,1.9-1.5,3.2c0,0.8,0.2,1.5,0.6,2.1c0.4,0.6,1.1,1.2,2,1.7c0.1,0.1,0.3,0.2,0.5,0.3c0.2,0.1,0.3,0.2,0.5,0.3l1.4,0.7
  c0.1,0,0.1,0.1,0.2,0.1c0.1,0,0.1,0.1,0.2,0.1c0.7,0.4,1.2,0.7,1.5,1.1c0.3,0.4,0.5,0.8,0.5,1.3c0,0.7-0.3,1.2-0.8,1.7
  c-0.5,0.5-1.2,0.7-2,0.7c-0.8,0-1.4-0.1-1.9-0.3c-0.5-0.2-0.8-0.6-1-1l-0.9-2c0-0.1,0-0.1-0.1-0.1c0,0-0.1,0-0.1,0
  c-0.1,0-0.1,0-0.1,0.1c0,0,0,0.1,0,0.2l0,4.2c0.3,0.1,0.7,0.2,1,0.3c0.3,0.1,0.7,0.1,1.1,0.2c0.3,0,0.7,0.1,1,0.1c0.3,0,0.7,0,1,0
  c1.5,0,2.6-0.4,3.5-1.2c0.9-0.8,1.4-1.9,1.4-3.2c0-0.8-0.2-1.5-0.6-2.1c-0.4-0.6-1.1-1.2-2.1-1.7c-0.1,0-0.2-0.1-0.3-0.1
  c-0.1-0.1-0.2-0.1-0.3-0.2l-1.5-0.8c-0.3-0.2-0.6-0.3-0.9-0.5c-0.3-0.2-0.5-0.3-0.7-0.5c-0.3-0.3-0.6-0.5-0.7-0.8
  c-0.1-0.3-0.2-0.6-0.2-0.9c0-0.7,0.3-1.3,0.8-1.8c0.6-0.5,1.2-0.7,2-0.7c0.6,0,1,0.1,1.4,0.3c0.3,0.2,0.6,0.4,0.8,0.8l0.9,2
  c0,0,0,0,0,0c0,0,0,0,0,0c0,0,0,0,0.1,0.1c0,0,0,0,0.1,0c0.1,0,0.1,0,0.1-0.1c0,0,0-0.1,0-0.2L69.2,7.4L69.2,7.4z M79.8,7.4
  c-0.2-0.1-0.5-0.1-0.7-0.2c-0.2-0.1-0.4-0.1-0.7-0.1c-0.3,0-0.6-0.1-0.8-0.1c-0.3,0-0.6,0-0.9,0c-1.6,0-2.9,0.4-3.9,1.2
  c-1,0.8-1.5,1.9-1.5,3.2c0,0.8,0.2,1.5,0.6,2.1c0.4,0.6,1.1,1.2,2,1.7c0.1,0.1,0.3,0.2,0.5,0.3c0.2,0.1,0.3,0.2,0.5,0.3l1.4,0.7
  c0.1,0,0.1,0.1,0.2,0.1c0.1,0,0.1,0.1,0.2,0.1c0.7,0.4,1.2,0.7,1.5,1.1c0.3,0.4,0.5,0.8,0.5,1.3c0,0.7-0.3,1.2-0.8,1.7
  c-0.5,0.5-1.2,0.7-2,0.7c-0.8,0-1.4-0.1-1.9-0.3c-0.5-0.2-0.8-0.6-1-1l-0.9-2c0-0.1,0-0.1-0.1-0.1c0,0-0.1,0-0.1,0
  c-0.1,0-0.1,0-0.1,0.1c0,0,0,0.1,0,0.2l0,4.2c0.3,0.1,0.7,0.2,1,0.3c0.3,0.1,0.7,0.1,1.1,0.2c0.3,0,0.7,0.1,1,0.1c0.3,0,0.7,0,1,0
  c1.5,0,2.6-0.4,3.5-1.2c0.9-0.8,1.4-1.9,1.4-3.2c0-0.8-0.2-1.5-0.6-2.1c-0.4-0.6-1.1-1.2-2.1-1.7c-0.1,0-0.2-0.1-0.3-0.1
  c-0.1-0.1-0.2-0.1-0.3-0.2L76,13.6c-0.3-0.2-0.6-0.3-0.9-0.5c-0.3-0.2-0.5-0.3-0.7-0.5c-0.3-0.3-0.6-0.5-0.7-0.8
  c-0.1-0.3-0.2-0.6-0.2-0.9c0-0.7,0.3-1.3,0.8-1.8c0.6-0.5,1.2-0.7,2-0.7c0.6,0,1,0.1,1.4,0.3c0.3,0.2,0.6,0.4,0.8,0.8l0.9,2
  c0,0,0,0,0,0c0,0,0,0,0,0c0,0,0,0,0.1,0.1c0,0,0,0,0.1,0c0.1,0,0.1,0,0.1-0.1c0,0,0-0.1,0-0.2L79.8,7.4L79.8,7.4z M86.9,8.6
  c0.2,0,0.3,0,0.4,0c0.1,0,0.2,0,0.2,0c0.4,0,0.8,0,1,0c0.2,0,0.4,0,0.4,0c0.9,0,1.5,0,1.8,0c0.3,0,0.6,0.1,0.7,0.1
  c0.1,0,0.2,0.1,0.3,0.3c0.1,0.2,0.2,0.4,0.3,0.6l0.5,1.1c0,0.1,0.1,0.1,0.1,0.1c0,0,0.1,0,0.1,0c0.1,0,0.1,0,0.1-0.1
  c0,0,0-0.1,0-0.2l0-3.8C92.4,7,91.7,7,91,7.1c-0.8,0-1.5,0.1-2.3,0.1c-0.4,0-0.9,0-1.3,0c-0.4,0-0.8,0-1.2,0c0,0-0.2,0-0.5,0
  c-0.3,0-0.8,0-1.4,0c-0.4,0-0.7,0-0.9,0c-0.2,0-0.4,0-0.4,0c-0.1,0-0.1,0-0.2,0c-0.1,0-0.1,0-0.2,0c-0.2,0-0.3,0-0.3,0
  c-0.1,0-0.1,0.1-0.1,0.2c0,0,0,0.1,0,0.1c0,0,0.1,0,0.1,0.1l1.3,0.5c0.1,0,0.2,0.1,0.3,0.1c0.1,0,0.1,0.1,0.2,0.1c0,0,0.1,0,0.1,0
  c0,0,0,0,0.1,0c0,0,0.1,0,0.1,0.1c0,0,0.1,0.1,0.1,0.1c0,0.1,0.1,0.1,0.1,0.2c0,0.1,0,0.3,0,0.7c0,0.1,0,0.2,0,0.3
  c0,0.1,0,0.2,0,0.3l0,1.8c0,0.5,0,0.8,0,1.1c0,0.3,0,0.5,0,0.6l0,2.9l0,1.8c0,0.4,0,0.6,0,0.9c0,0.2,0,0.4,0,0.5l0,1
  c0,0.2,0,0.3-0.1,0.4c-0.1,0.1-0.2,0.2-0.3,0.3c-0.1,0-0.2,0.1-0.3,0.1c-0.1,0-0.2,0.1-0.4,0.2l-1.2,0.5c-0.1,0-0.1,0-0.1,0.1
  c0,0,0,0.1,0,0.1c0,0.1,0,0.1,0.1,0.1c0,0,0.1,0,0.2,0h9.9c0.4,0,0.7-0.1,0.8-0.2c0.1-0.1,0.2-0.5,0.2-1l0-2.4c0-0.1,0-0.1,0-0.2
  c0,0-0.1-0.1-0.2-0.1c0,0-0.1,0-0.1,0s-0.1,0.1-0.1,0.1l-0.6,1.3c0,0,0,0.1,0,0.1c0,0,0,0.1,0,0.1c-0.2,0.4-0.4,0.6-0.7,0.7
  c-0.3,0.1-0.9,0.1-1.9,0.1c-0.8,0-1.4,0-1.9,0c-0.5,0-0.8-0.1-0.8-0.1c-0.1,0-0.1-0.2-0.2-0.4c0-0.2,0-0.7,0-1.3v-3.9
  c0.1,0,0.2,0,0.3,0c0.1,0,0.1,0,0.2,0c0.1,0,0.2,0,0.4,0c0.2,0,0.4,0,0.8,0c0.3,0,0.6,0,0.8,0c0.2,0,0.3,0,0.4,0c0.1,0,0.2,0,0.3,0
  c0.1,0,0.1,0,0.1,0c0.2,0,0.3,0,0.4,0.1c0.1,0,0.2,0.1,0.3,0.2c0,0.1,0.1,0.1,0.1,0.2c0,0.1,0.1,0.2,0.1,0.3l0.6,1.3
  c0,0.1,0.1,0.1,0.1,0.1c0,0,0.1,0,0.1,0c0.1,0,0.1,0,0.2-0.1c0,0,0-0.1,0-0.2l0-4.8c0-0.1,0-0.1,0-0.2c0,0-0.1-0.1-0.1-0.1
  c0,0,0,0,0,0c0,0,0,0,0,0c0,0,0,0,0,0c0,0,0,0.1-0.1,0.1l-0.5,0.7c0,0,0,0,0,0c0,0,0,0,0,0c-0.2,0.2-0.4,0.4-0.7,0.4
  c-0.3,0.1-0.8,0.1-1.6,0.1c-0.3,0-0.6,0-0.9,0c-0.3,0-0.7,0-1,0L86.9,8.6L86.9,8.6z M100,15.9h0.1l4.2,4.3c0.5,0.6,1,1,1.3,1.3
  c0.4,0.3,0.7,0.6,1.1,0.8c0.3,0.2,0.7,0.3,1,0.3c0.4,0.1,0.8,0.1,1.3,0.1c0.4,0,0.6,0,0.8-0.1c0.1-0.1,0.2-0.1,0.2-0.3
  c0-0.1,0-0.1,0-0.1c0,0-0.1-0.1-0.1-0.1c0,0-0.1-0.1-0.2-0.1c-0.1,0-0.1,0-0.2-0.1c-0.2-0.1-0.4-0.1-0.5-0.2
  c-0.2-0.1-0.3-0.2-0.5-0.3c-0.3-0.2-0.6-0.4-0.9-0.7c-0.3-0.3-0.7-0.7-1.1-1.1l-3.9-3.9c1.2-0.3,2.1-0.8,2.8-1.5
  c0.7-0.7,1-1.6,1-2.7c0-1.4-0.5-2.5-1.4-3.2c-0.9-0.7-2.2-1.1-4-1.1l-5.5,0c-0.1,0-0.1,0-0.2,0.1c-0.1,0-0.1,0.1-0.1,0.2
  c0,0,0,0.1,0,0.1c0,0,0.1,0.1,0.1,0.1l1.7,0.6c0.1,0,0.2,0.1,0.3,0.1c0.1,0,0.1,0.1,0.2,0.1c0,0,0,0.1,0.1,0.1c0,0,0,0.1,0,0.2
  c0,0,0,0.1,0,0.2c0,0.1,0,0.3,0,0.4l0,1c0,0.1,0,0.2,0,0.3c0,0.1,0,0.3,0,0.5l0,6.3c0,0.3,0,0.6,0,0.9c0,0.2,0,0.5,0,0.7l0,1.1
  c0,0.1,0,0.2,0,0.3c0,0.1,0,0.2,0,0.2c0,0.1,0,0.1,0,0.2c0,0.1,0,0.1,0,0.1c0,0,0,0.1,0,0.1c0,0,0,0.1,0,0.1l0,0c0,0,0,0,0,0
  c0,0,0,0,0,0c0,0-0.1,0-0.1,0c-0.1,0-0.1,0-0.2,0.1l-1.8,0.8c-0.1,0-0.1,0-0.1,0.1c0,0,0,0.1,0,0.1c0,0.1,0,0.1,0.1,0.1
  c0,0,0.1,0,0.2,0h6.7c0.1,0,0.1,0,0.2-0.1c0,0,0.1-0.1,0.1-0.2c0,0,0-0.1,0-0.1c0,0-0.1-0.1-0.1-0.1l-1.7-0.6c0,0,0,0,0,0
  c0,0,0,0,0,0c-0.1,0-0.1,0-0.2-0.1c-0.1,0-0.1-0.1-0.2-0.1c0,0-0.1,0-0.1-0.1c0,0,0,0-0.1-0.1l0,0c0,0,0-0.1,0-0.1c0,0,0-0.1,0-0.2
  c0,0,0-0.1,0-0.1s0-0.1,0-0.2L100,15.9L100,15.9L100,15.9L100,15.9L100,15.9L100,15.9z M100,14.5V9.4c0-0.4,0.1-0.6,0.2-0.7
  c0.1-0.1,0.5-0.1,1-0.1c0.8,0,1.6,0.3,2.1,0.8c0.6,0.5,0.9,1.2,0.9,2c0,1-0.3,1.7-1,2.2c-0.7,0.5-1.6,0.8-2.8,0.9H100L100,14.5z
   M117.7,7.6C117.8,7.6,117.8,7.6,117.7,7.6c0.1-0.1,0.1-0.1,0.1-0.1c0,0,0,0,0,0c0,0,0,0,0,0c0-0.1,0-0.1-0.1-0.2c0,0-0.1,0-0.2,0
  h-6.6c-0.1,0-0.1,0-0.2,0c0,0-0.1,0.1-0.1,0.1c0,0,0,0.1,0,0.1c0,0,0,0,0.1,0.1c0,0,0,0,0.1,0c0,0,0,0,0.1,0l1.7,0.7
  c0.1,0,0.1,0,0.2,0.1c0,0,0.1,0.1,0.1,0.1c0,0,0.1,0.1,0.1,0.1c0,0,0.1,0,0.1,0.1c0,0.1,0.1,0.2,0.1,0.3c0,0.1,0,0.5,0,0.9l0,1.1
  c0,0.1,0,0.1,0,0.2c0,0.1,0,0.2,0,0.3c0,0.1,0,0.2,0,0.3c0,0.1,0,0.2,0,0.4v5.3c0,0.1,0,0.3,0,0.4c0,0.1,0,0.2,0,0.3
  c0,0.1,0,0.2,0,0.3c0,0.1,0,0.2,0,0.3c0,0.1,0,0.3,0,0.4s0,0.3,0,0.5c0,0.1,0,0.2,0,0.4c0,0.1,0,0.2,0,0.4c0,0.1,0,0.2,0,0.4
  c0,0.1,0,0.2,0,0.3c0,0.1,0,0.2-0.1,0.3c0,0.1-0.1,0.1-0.2,0.2c0,0-0.1,0-0.2,0.1c-0.1,0-0.1,0-0.2,0.1l-1.6,0.7
  c-0.1,0-0.1,0-0.1,0.1c0,0,0,0.1,0,0.1c0,0.1,0,0.1,0.1,0.1c0,0,0.1,0,0.2,0h6.6c0.1,0,0.1,0,0.2,0c0,0,0.1-0.1,0.1-0.1
  c0,0,0-0.1,0-0.1c0,0-0.1-0.1-0.1-0.1l-1.5-0.6l-0.4-0.1c0,0,0,0-0.1,0c0,0,0,0-0.1,0c0,0-0.1,0-0.1-0.1s0,0-0.1-0.1
  c0-0.1-0.1-0.2-0.1-0.3c0-0.1,0-0.4,0-0.9v-1.2l0-1.4v-5.7c0-0.4,0-0.6,0-0.8c0-0.2,0-0.3,0-0.4v-1c0-0.4,0-0.6,0-0.7
  c0-0.1,0-0.2,0-0.2c0,0,0-0.1,0.1-0.1c0,0,0,0,0.1-0.1c0,0,0.1,0,0.1-0.1c0.1,0,0.1,0,0.2-0.1L117.7,7.6L117.7,7.6z M124.3,8.6
  c0.2,0,0.3,0,0.4,0s0.2,0,0.2,0c0.4,0,0.8,0,1,0c0.2,0,0.4,0,0.4,0c0.9,0,1.5,0,1.8,0c0.3,0,0.6,0.1,0.7,0.1c0.1,0,0.2,0.1,0.3,0.3
  c0.1,0.2,0.2,0.4,0.3,0.6l0.5,1.1c0,0.1,0.1,0.1,0.1,0.1c0,0,0.1,0,0.1,0c0.1,0,0.1,0,0.1-0.1c0,0,0-0.1,0-0.2l0-3.8
  c-0.5,0-1.1,0.1-1.9,0.1c-0.8,0-1.5,0.1-2.3,0.1c-0.4,0-0.9,0-1.3,0c-0.4,0-0.8,0-1.2,0c0,0-0.2,0-0.5,0c-0.3,0-0.8,0-1.4,0
  c-0.4,0-0.7,0-0.9,0c-0.2,0-0.4,0-0.4,0c-0.1,0-0.1,0-0.2,0c-0.1,0-0.1,0-0.2,0c-0.2,0-0.3,0-0.3,0c-0.1,0-0.1,0.1-0.1,0.2
  c0,0,0,0.1,0,0.1c0,0,0.1,0,0.1,0.1l1.3,0.5c0.1,0,0.2,0.1,0.3,0.1c0.1,0,0.1,0.1,0.2,0.1c0,0,0.1,0,0.1,0c0,0,0,0,0.1,0
  c0,0,0.1,0,0.1,0.1c0,0,0.1,0.1,0.1,0.1c0,0.1,0.1,0.1,0.1,0.2c0,0.1,0,0.3,0,0.7c0,0.1,0,0.2,0,0.3c0,0.1,0,0.2,0,0.3l0,1.8
  c0,0.5,0,0.8,0,1.1c0,0.3,0,0.5,0,0.6l0,2.9l0,1.8c0,0.4,0,0.6,0,0.9c0,0.2,0,0.4,0,0.5l0,1c0,0.2,0,0.3-0.1,0.4
  c-0.1,0.1-0.2,0.2-0.3,0.3c-0.1,0-0.2,0.1-0.3,0.1c-0.1,0-0.2,0.1-0.4,0.2l-1.2,0.5c-0.1,0-0.1,0-0.1,0.1c0,0,0,0.1,0,0.1
  c0,0.1,0,0.1,0.1,0.1c0,0,0.1,0,0.2,0h9.9c0.4,0,0.7-0.1,0.8-0.2c0.1-0.1,0.2-0.5,0.2-1l0-2.4c0-0.1,0-0.1,0-0.2
  c0,0-0.1-0.1-0.2-0.1c0,0-0.1,0-0.1,0c0,0-0.1,0.1-0.1,0.1l-0.6,1.3c0,0,0,0.1,0,0.1c0,0,0,0.1,0,0.1c-0.2,0.4-0.4,0.6-0.7,0.7
  c-0.3,0.1-0.9,0.1-1.9,0.1c-0.8,0-1.4,0-1.9,0c-0.5,0-0.8-0.1-0.8-0.1c-0.1,0-0.1-0.2-0.2-0.4c0-0.2,0-0.7,0-1.3v-3.9
  c0.1,0,0.2,0,0.3,0c0.1,0,0.1,0,0.2,0c0.1,0,0.2,0,0.4,0c0.2,0,0.4,0,0.8,0c0.3,0,0.6,0,0.8,0c0.2,0,0.3,0,0.4,0c0.1,0,0.2,0,0.3,0
  c0.1,0,0.1,0,0.1,0c0.2,0,0.3,0,0.4,0.1c0.1,0,0.2,0.1,0.3,0.2c0,0.1,0.1,0.1,0.1,0.2c0,0.1,0.1,0.2,0.1,0.3l0.6,1.3
  c0,0.1,0.1,0.1,0.1,0.1c0,0,0.1,0,0.1,0c0.1,0,0.1,0,0.2-0.1c0,0,0-0.1,0-0.2l0-4.8c0-0.1,0-0.1,0-0.2c0,0-0.1-0.1-0.1-0.1
  c0,0,0,0,0,0c0,0,0,0,0,0c0,0,0,0,0,0c0,0,0,0.1-0.1,0.1l-0.5,0.7c0,0,0,0,0,0c0,0,0,0,0,0c-0.2,0.2-0.4,0.4-0.7,0.4
  c-0.3,0.1-0.8,0.1-1.6,0.1c-0.3,0-0.6,0-0.9,0c-0.3,0-0.7,0-1,0L124.3,8.6L124.3,8.6z"/>
</svg>