<svg id="logo-alt"  data-name="logo alternatif" xmlns="http://www.w3.org/2000/svg" viewBox="0 0 241.6 263.8" style="enable-background:new 0 0 241.6 263.8;" >
              <style>
                                .logo-alt{fill:#fff;fill-rule:evenodd;transition: .3s ease-out;}
                                .cercle{fill:transparent;fill-rule:evenodd;transition: .3s ease-out;}
                                #logo-alt:hover .logo-alt{fill:#ddd;}
                                </style>
              <title>La Brasserie du Theatre</title>
              <path class="logo-alt" d="M120.2,150.2L120.2,150.2C120.2,150.2,120.2,150.2,120.2,150.2L120.2,150.2z M240.6,32.7c-1.9,0-11.8-0.4-20.3,3
                c-2.3,0.9-5,2-8.3,3.9c-4.7-3.1-11.3-6.2-20.3-8.6c-0.6-0.2-1.2-0.3-1.9-0.4l-0.2-26.8c0-1.4-0.2-2.4-0.5-3
                c-0.4-0.5-0.9-0.8-1.9-0.8c-0.4,0-0.7,0.1-0.9,0.2s-0.5,0.2-0.7,0.4l-1.9,1.3c-0.5,0.4-0.9,0.7-1.3,0.9c-0.4,0.2-0.8,0.5-1.3,0.7
                c-2.8,1.8-6.2,2.9-10.1,3.4s-10.4,0.7-19.3,0.7H88.6c-8.8,0-15.5-0.2-20-0.7c-4.5-0.5-7.7-1.3-9.7-2.6l-2.6-2.1l-1.9-1.3
                c-0.2-0.2-0.4-0.3-0.7-0.4c-0.2-0.1-0.5-0.2-0.9-0.2c-0.7,0-1.3,0.2-1.9,0.8s-0.8,1.3-0.8,2.4L50.9,57c0,0.9,0.2,1.6,0.5,2
                c0.4,0.5,0.9,0.7,1.6,0.7c0.5,0,1-0.2,1.5-0.4c0.5-0.2,0.8-0.8,0.9-1.5l10.6-27c0-0.2,0.1-0.4,0.2-0.5c0.1-0.2,0.2-0.4,0.4-0.5
                c0.7-2.1,1.7-3.4,2.9-3.9c1.2-0.5,3.5-0.8,6.9-0.9h32.1v20.6c-0.2,0.2-0.5,0.2-0.7,0.4C76.9,64.6,70.5,88.8,78,101.5
                c1.7,2.6,3.8,4.7,6.3,6.3c0.8,2.9,2.3,5.5,4.4,7.6c6,6.2,12.8,7.6,19.6,5.8l-0.1,27.2c-14.5,13.4-32.3,21.4-56.2,18.6
                c-3.7-0.6-8.2-2.2-12-4.8c-3-13.9,16.1-26.5,19.1-27.8c22.9-10.4,45.9-7.4,42.8,4.1c-2.3,7.7-10.2,18.6-34.8,22.1
                c-1.1,0-5.7,1.9-1.9,2.3c23.1-0.4,40.6-15.9,41.4-25.3c0.7-15.4-28.1-17.1-49.2-7c-11.1,5.5-19.8,18.4-21,28.4
                c-2.6-2.9-4.2-6.5-3.7-10.8c1.7-11.8,20.1-21,22.1-21.4c1.9-0.5,2.6-2.8-1.4-1.9c-9.7,1.9-23.4,10.7-24.9,23.8
                c-0.5,7.1,3.1,12,8,15.6c0.3,1.7,0.9,3.3,1.9,4.5c12.1,15.4,42.4,14,69.6-2c-0.2,0.5-0.2,1.1-0.3,1.6c-0.1,0.5-1.1,2-1.2,2.3
                c-0.2,0.2-0.5,0.5-0.8,0.7c-0.5,0.2-1.1,0.4-1.7,0.7c-0.6,0.2-1.4,0.5-2.3,0.9l-22,8.8c-0.7,0.2-1.2,0.5-1.6,0.8
                c-0.4,0.4-0.5,0.8-0.5,1.3c0,0.7,0.2,1.2,0.8,1.6c0.5,0.4,1.2,0.5,2.1,0.5h79.2c0.9,0,1.6-0.2,2.1-0.5c0.5-0.4,0.8-0.9,0.8-1.6
                c0-0.5-0.2-1-0.4-1.3c-0.2-0.4-0.9-0.6-1.7-0.8l-12.9-5.1c12.2-1.1,27.4-9.7,36.2-21c27-36.5-0.6-47.2-0.5-48.4
                c18.7-7.6,38.9-15.2,39.3-38.2c0.2-8.7-4.7-15.7-12.3-20.7c1.5-1.2,2.9-2.3,4.2-3.3c3.7,2.6,5.8,4.8,6.1,5c0.5,0.5,2.2-0.1,1.4-1.4
                c-1-1.6-2.6-3.4-4.8-5.5c2.3-1.5,4.2-2.6,5.9-3.5c4.3-2.3,16.2-4,17.5-4.4C241.4,34.6,242.5,32.7,240.6,32.7z M190.8,33.7
                c7.1,1.8,13.3,4.8,18.2,7.7c-1.6,1-3.2,2.2-5,3.5c-4.2-1.9-9-3.4-14.1-4.4l-0.1-6.9C190.2,33.6,190.5,33.7,190.8,33.7z M133.1,126.2
                c12.1-15.1,23.2-32,30.9-43.7c10.5-16,18.5-22.9,21.5-25.2l0.3,0.8c0.4,0.7,0.7,1.2,1.1,1.5c0.4,0.2,0.7,0.4,1.1,0.4h0.1
                c-4.8,5.4-10.1,11.9-15.8,19.9c-16.8,23.5-26.7,38.3-39,54.4L133.1,126.2z M132.9,24.6l25.7,0.5c5.3,0.2,9,0.5,10.9,1.2
                c1.1,0.4,2.2,1,3.1,2c-15.3-0.6-28.5,2-39.7,5.9L132.9,24.6z M132.9,40.4c13.6-5.1,28.7-8.3,42.2-8.3v0.1c0.2,0.4,0.4,0.8,0.5,1.3
                l2.3,5.6c-9.4-0.5-19.1,0.4-27.8,3c-6.1,1.9-11.8,4.1-17.1,6.5V40.4L132.9,40.4z M133.1,102.1c1.6-2,3.1-4.1,4.5-6.3
                c1.4-0.9,2.7-1.9,4.1-3c18.1-14.5,28.8-33.7,30.3-37.4c0.7-1.8-2.2-2.6-2.8-1.5C157,72.4,149.7,81.2,142.8,87c4.4-8.4,7.3-17,8-23.9
                c0.2-4.1-2.7-3.1-3.4-0.6c-1.8,10.9-5.8,20.8-10.9,29.1c-1.2,0.9-2.3,1.6-3.4,2.4L133,53.3c5.8-3,12-5.5,18.5-7.4
                c10.5-3.2,19.8-4.2,27.7-3.8l5.1,12.3c-2.8,2-13.3,10.2-23.5,24.8c-7.6,11.1-17,24.9-27.7,39.2V102.1z M190,43.6
                c4,1,7.5,2.5,10.5,4.2c-3.2,2.6-6.7,6-10.4,10.1c0-0.2,0-0.5,0-0.9L190,43.6z M83.6,102.5c-0.9-0.9-1.6-1.8-2.2-2.9
                c-8.7-14.1,6.1-33.4,26.9-47v10.6C91.8,76.1,83.5,90.9,83.6,102.5z M108.3,70.1l-0.1,36.2c-8.3,2.3-14.8,1.9-19.6-0.2
                C86.7,96.2,94.5,82.4,108.3,70.1z M92,112.7c-0.6-0.6-1.1-1.3-1.6-2c4.9,1.4,10.9,1.5,17.8-0.2v5.8C101.9,118,96.2,117,92,112.7z
                 M42.2,167.5c3,1.4,6.1,2.5,8.7,3.3c23.5,3.8,42.3-5.8,57.1-18.1l-0.2,6.8c0,0.6,0,1.2,0,1.6C82.7,179.4,50.6,180.2,42.2,167.5z
                 M85.6,182.5c3.5-0.9,31.2-8.8,34.4-9.9V15.8l-7.4,5.6l-37.4,0.2c-3.2,0-5.5,0.3-7,0.9c-1.5,0.6-2.8,2.1-3.8,4.4
                c-0.2,0.4-0.4,0.7-0.5,1.1s-0.4,0.7-0.5,1.1l-7.5,20l3.4-24.9c0.2-1.1,0.4-2,0.5-2.8s0.5-1.6,0.8-2.3c0.2-0.7,0.5-1.4,0.8-2.1
                c0.4-0.7,0.7-1.4,1.1-2.1c-0.7-0.5-1.3-1-1.9-1.3c-0.5-0.4-0.9-0.7-1.3-1.1c-1.1-0.9-1.9-1.9-2.5-3c-0.6-1.1-1.2-2.4-1.7-4.1
                c0-0.2-0.1-0.4-0.2-0.5c-0.1-0.2-0.2-0.4-0.2-0.5c2.8,2.5,6.5,4.2,11,5.1c4.5,0.9,12.5,1.3,24,1.3h62.6c10.3,0,17.6-0.4,22-1.2
                c4.4-0.8,8.1-2.3,11.1-4.7c0.4-0.2,0.7-0.4,0.9-0.7c0.2-0.2,0.5-0.5,0.7-0.7v45.7c-0.9-3.9-1.6-7.2-2.3-9.9
                c-0.5-2.4-1.2-4.8-1.9-7.2c0,0,0,0,0.1,0c-0.1-0.2-0.1-0.4-0.2-0.5c0-0.2,0-0.4,0-0.5c0-0.2,0-0.4,0-0.5c-0.2-0.5-0.2-1-0.4-1.6
                h-0.1c-0.4-1.6-0.9-3.4-1.2-5.2c-0.5-2.3-1.2-5.1-1.9-8.6c-1.8,2.3-4.1,3.9-7.2,4.8c-3,0.9-7.7,1.3-14,1.3L130,21.1v125.5l0.2,12.3
                c0.2,6.2,0.6,10.4,1.3,12.3c0.7,1.9,2.6,3.6,5.5,4.8c0.2,0,0.3,0.1,0.4,0.2c0.1,0.1,0.2,0.2,0.4,0.2l17,6.2L85.6,182.5L85.6,182.5z
                 M183.9,113.8c7.2,8.9,2.3,20.6-9.1,35.9c-18.6,22-31.9,23.8-37.9,18.8c-13.8-14,26.6-38.4,26.6-38.4s-0.2-2.1-1.9-1.5
                c-15.4,9.4-23.9,17.1-28.4,23.5c0-1.1,0-2.3,0-3.5v-1.9c15-14.6,23.5-26.1,31.6-38.3C166.2,109.2,176.8,104.9,183.9,113.8z
                 M213.7,66.9c-0.5,27.2-34.3,38-46.8,37.6c4.1-6.4,8.2-13.1,13.1-20.6c10-15.4,18.7-25.4,25.9-32.1
                C211.1,56.3,213.8,61.9,213.7,66.9z M53.2,218.4c1.2-0.7,2.1-1.4,2.6-2.2c0.5-0.8,0.8-1.6,0.8-2.6c0-1.5-0.5-2.7-1.6-3.6
                c-1.1-0.9-2.6-1.3-4.4-1.3c-0.2,0-0.4,0-0.7,0c-0.3,0-0.8,0-1.3,0.1c-0.2,0-0.5,0-0.9,0s-0.7,0-1.2,0c-0.3,0-0.6,0-0.9,0
                c-0.2,0-0.5,0-0.7,0s-0.4,0-0.5,0s-0.3,0-0.5,0h-1.6c-0.2,0-0.3,0-0.4,0.1c-0.1,0.1-0.1,0.1-0.1,0.2c0,0.1,0,0.2,0.1,0.2
                c0.1,0.1,0.1,0.1,0.2,0.2l2.3,0.9c0.1,0.1,0.2,0.1,0.3,0.2c0.1,0.1,0.2,0.1,0.2,0.2c0.1,0.1,0.1,0.2,0.2,0.5c0,0.2,0.1,0.6,0.1,1.2
                l0.1,1.7c0,0.1,0,0.2,0,0.4s0,0.3,0,0.5s0,0.3,0,0.5s0,0.4,0,0.6l0.1,6.9c0,0.2,0,0.3,0,0.5s0,0.3,0,0.5c0,0.9,0,1.6,0,2.1
                c0,0.5,0,0.9-0.1,1.3c0,0.1,0,0.1,0,0.1v0.1c0,0.2-0.1,0.3-0.1,0.4c-0.1,0.1-0.1,0.2-0.2,0.2c-0.1,0.1-0.2,0.1-0.3,0.2
                c-0.1,0.1-0.2,0.2-0.4,0.2l-1.9,0.9c-0.1,0-0.2,0.1-0.2,0.1c-0.1,0.1-0.1,0.1-0.1,0.2s0,0.2,0.1,0.2c0.1,0.1,0.2,0.1,0.2,0.1h6.7
                c0.1,0,0.2,0,0.2,0c0.1,0,0.1,0,0.2,0c2.9,0,5.1-0.5,6.5-1.6c1.5-1,2.3-2.5,2.3-4.4c0-1.3-0.4-2.5-1.2-3.4
                C55.9,219.4,54.7,218.7,53.2,218.4L53.2,218.4z M47.9,219.8c0.2,0,0.3,0,0.4-0.1c0.1,0,0.2,0,0.3-0.1c0.1,0,0.2,0,0.2,0
                c0.1,0,0.2,0,0.3,0c1.9,0,3.3,0.3,4.2,0.9c0.9,0.6,1.4,1.6,1.4,2.9c0,1.2-0.5,2.2-1.3,2.9c-0.9,0.8-2,1.1-3.4,1.1
                c-0.9,0-1.6-0.1-1.8-0.2c-0.2-0.2-0.4-0.5-0.4-1.1L47.9,219.8L47.9,219.8z M47.9,217.7v-6.4c0-0.3,0.2-0.5,0.5-0.6
                c0.3-0.1,0.8-0.2,1.6-0.2c1.2,0,2.1,0.3,2.8,0.9c0.6,0.5,0.9,1.4,0.9,2.4c0,1.2-0.5,2.2-1.3,2.9c-0.9,0.7-2.1,1.1-3.6,1.1
                c-0.1,0-0.1,0-0.2,0c-0.1,0-0.1,0-0.2,0s-0.2,0-0.2,0C48.1,217.8,48,217.7,47.9,217.7L47.9,217.7z M64.5,220.4h0.2l5.7,5.8
                c0.7,0.8,1.3,1.4,1.8,1.8c0.5,0.5,1,0.8,1.4,1c0.5,0.2,0.9,0.3,1.4,0.4s1.1,0.1,1.8,0.1c0.5,0,0.9,0,1.1-0.1
                c0.2-0.1,0.3-0.2,0.3-0.4c0-0.1,0-0.2,0-0.2c0-0.1-0.1-0.1-0.2-0.2c-0.1-0.1-0.2-0.1-0.2-0.1s-0.2-0.1-0.3-0.1
                c-0.2-0.1-0.5-0.2-0.7-0.3c-0.2-0.1-0.5-0.2-0.7-0.4c-0.4-0.2-0.8-0.5-1.2-0.9c-0.4-0.4-0.9-0.9-1.5-1.5l-5.2-5.3
                c1.6-0.4,2.8-1,3.7-2c0.9-1,1.4-2.2,1.4-3.6c0-1.9-0.6-3.4-1.9-4.3c-1.2-1-3-1.5-5.4-1.5l-7.4,0.1c-0.1,0-0.2,0-0.2,0.1
                c-0.1,0.1-0.1,0.2-0.1,0.2c0,0.1,0,0.2,0.1,0.2c0,0.1,0.1,0.1,0.2,0.2l2.3,0.8c0.2,0.1,0.3,0.2,0.4,0.2c0.1,0.1,0.2,0.1,0.2,0.2
                c0.1,0.1,0.1,0.1,0.1,0.2s0,0.2,0,0.2c0,0.1,0,0.2,0,0.3c0,0.2,0,0.4,0,0.6l0.1,1.3c0,0.1,0,0.2,0,0.5c0,0.2,0,0.4,0,0.7l0.1,8.5
                c0,0.5,0,0.8,0,1.2c0,0.3,0,0.6,0,0.9v1.5c0,0.2,0,0.2,0,0.4c0,0.1,0,0.2,0,0.3s0,0.2,0,0.2c0,0.1,0,0.2,0,0.2c0,0.1,0,0.2,0,0.2
                c0,0.1,0,0.1-0.1,0.2l0,0c0,0,0,0-0.1,0.1c0,0,0,0-0.1,0.1c0,0-0.1,0.1-0.2,0.1c-0.1,0-0.2,0.1-0.3,0.2l-2.5,1
                c-0.1,0-0.2,0.1-0.2,0.1c-0.1,0.1-0.1,0.1-0.1,0.2s0,0.2,0.1,0.2c0.1,0.1,0.2,0.1,0.2,0.1h9.1c0.1,0,0.2,0,0.2-0.1
                c0.1-0.1,0.1-0.2,0.1-0.2c0-0.1,0-0.2-0.1-0.2c-0.1-0.1-0.1-0.1-0.2-0.1l-2.3-0.9c0,0,0,0-0.1,0c0,0,0,0-0.1,0s-0.2-0.1-0.2-0.1
                c-0.1-0.1-0.2-0.1-0.2-0.2c-0.1,0-0.1-0.1-0.1-0.1l-0.1-0.1l0,0c0-0.1,0-0.1-0.1-0.2c0-0.1,0-0.2,0-0.2c0-0.1,0-0.2,0-0.2
                s0-0.2,0-0.2L64.5,220.4L64.5,220.4L64.5,220.4L64.5,220.4L64.5,220.4L64.5,220.4z M64.5,218.6v-6.9c0-0.5,0.2-0.8,0.3-0.9
                c0.2-0.2,0.6-0.2,1.3-0.2c1.2,0,2.1,0.4,2.9,1.1c0.8,0.7,1.2,1.6,1.2,2.7c0,1.2-0.5,2.3-1.3,3c-0.9,0.7-2.1,1.1-3.7,1.2H64.5
                L64.5,218.6z M93.8,221.4l2,5.3c0.1,0.2,0.1,0.4,0.2,0.5c0.1,0.2,0.1,0.3,0.1,0.4s0,0.2,0,0.2c0,0.1-0.1,0.1-0.1,0.2
                c-0.1,0.1-0.1,0.1-0.2,0.2c-0.1,0.1-0.2,0.1-0.3,0.2l-1.9,0.8c-0.1,0-0.2,0.1-0.2,0.1c-0.1,0.1-0.1,0.1-0.1,0.2s0,0.2,0.1,0.2
                c0.1,0.1,0.2,0.1,0.3,0.1h8.3c0.2,0,0.2,0,0.3-0.1c0.1-0.1,0.1-0.2,0.1-0.2c0-0.1,0-0.1,0-0.1s0-0.1-0.1-0.1c0,0-0.1,0-0.1-0.1
                c0,0-0.1,0-0.1-0.1l-1.6-0.7c-0.2-0.1-0.3-0.2-0.4-0.2c-0.1-0.1-0.2-0.1-0.2-0.2s-0.1-0.1-0.1-0.1l-0.1-0.1c0,0,0-0.1-0.1-0.1
                c0,0,0-0.1-0.1-0.1c-0.2-0.2-0.3-0.7-0.6-1.4c-0.3-0.7-0.6-1.5-0.9-2.3c-0.1-0.1-0.1-0.2-0.2-0.3c-0.1-0.1-0.1-0.2-0.2-0.3l-3.9-9.8
                c-0.2-0.4-0.3-0.8-0.5-1.2c-0.2-0.4-0.2-0.8-0.4-1.1c-0.1-0.2-0.2-0.5-0.3-0.9c-0.1-0.3-0.2-0.5-0.2-0.9c-0.1-0.2-0.1-0.3-0.2-0.5
                c-0.1-0.2-0.1-0.3-0.2-0.5h-2.3l-0.2,0.5c-0.2,0.5-0.3,1-0.5,1.6c-0.2,0.6-0.4,1.2-0.6,1.9c-0.1,0.2-0.2,0.5-0.2,0.7
                c-0.1,0.2-0.2,0.5-0.2,0.7c-0.1,0.2-0.2,0.3-0.2,0.4c-0.1,0.2-0.1,0.2-0.2,0.4L83.8,225c-0.1,0.2-0.2,0.5-0.3,0.7
                c-0.1,0.2-0.2,0.4-0.2,0.5l-0.5,1c0,0.1-0.1,0.1-0.1,0.2s-0.1,0.1-0.1,0.2c-0.1,0.1-0.1,0.2-0.2,0.2c-0.1,0.1-0.1,0.1-0.2,0.2
                c-0.1,0.1-0.2,0.1-0.2,0.2s-0.2,0.1-0.4,0.2l-1.8,0.9c-0.1,0-0.1,0-0.1,0.1c0,0-0.1,0-0.1,0.1c-0.1,0-0.1,0.1-0.1,0.1v0.1
                c0,0.1,0,0.2,0.1,0.2c0.1,0.1,0.2,0.1,0.2,0.1h7.8c0.2,0,0.2,0,0.3-0.1c0.1-0.1,0.1-0.2,0.1-0.2c0-0.1,0-0.1,0-0.1s0-0.1-0.1-0.1
                c0,0-0.1,0-0.1-0.1c0,0-0.1,0-0.1-0.1l-1.9-0.9c-0.2-0.1-0.2-0.2-0.3-0.2c-0.1-0.1-0.2-0.1-0.2-0.2c-0.1,0-0.1-0.1-0.1-0.1
                c0-0.1,0-0.1,0-0.2s0-0.1,0-0.2s0-0.1,0.1-0.2l0.2-0.6l1.9-5.2c0.7-0.1,1.3-0.1,1.9-0.1c0.5,0,0.9,0,1.2,0c0.4,0,0.8,0,1.3,0
                C92.4,221.4,93.1,221.4,93.8,221.4L93.8,221.4z M93,219.3c-0.5,0-0.9,0-1.2,0s-0.6,0-0.9,0c-0.3,0-0.7,0-1.1,0s-0.9-0.1-1.6-0.1
                l2.3-5.8L93,219.3L93,219.3z M114.4,209c-0.3-0.1-0.6-0.2-0.9-0.2c-0.3-0.1-0.6-0.2-0.9-0.2c-0.4-0.1-0.8-0.1-1.2-0.2
                c-0.4,0-0.8-0.1-1.2-0.1c-2.2,0-3.9,0.5-5.2,1.6c-1.3,1.1-2,2.5-2,4.3c0,1.1,0.2,2.1,0.8,2.9c0.5,0.8,1.5,1.6,2.7,2.3
                c0.2,0.2,0.4,0.2,0.6,0.4c0.2,0.1,0.5,0.2,0.7,0.4l1.9,0.9c0.1,0.1,0.2,0.1,0.2,0.2s0.2,0.1,0.2,0.2c0.9,0.5,1.6,1,2,1.6
                c0.4,0.5,0.6,1.1,0.6,1.8c0,0.9-0.4,1.6-1.1,2.3s-1.6,0.9-2.6,0.9s-1.9-0.2-2.6-0.5c-0.6-0.3-1.1-0.8-1.4-1.4l-1.2-2.7
                c0-0.1-0.1-0.2-0.1-0.2c-0.1,0-0.1-0.1-0.2-0.1c-0.1,0-0.2,0-0.2,0.1c-0.1,0.1-0.1,0.2-0.1,0.2l0.1,5.7c0.5,0.2,0.9,0.2,1.3,0.4
                c0.5,0.1,0.9,0.2,1.4,0.2c0.5,0.1,0.9,0.1,1.4,0.2s0.9,0.1,1.3,0.1c1.9,0,3.6-0.5,4.8-1.6c1.2-1.1,1.8-2.5,1.8-4.3
                c0-1.1-0.3-2.1-0.9-2.9c-0.5-0.8-1.5-1.6-2.8-2.3c-0.2-0.1-0.3-0.2-0.4-0.2c-0.2-0.1-0.3-0.2-0.4-0.2l-2-1c-0.5-0.2-0.9-0.5-1.2-0.7
                c-0.4-0.2-0.7-0.5-0.9-0.6c-0.5-0.4-0.8-0.7-0.9-1.1c-0.2-0.4-0.3-0.8-0.3-1.2c0-0.9,0.4-1.8,1.1-2.4c0.8-0.6,1.6-0.9,2.7-0.9
                c0.8,0,1.4,0.1,1.9,0.3c0.5,0.2,0.8,0.6,1,1.1l1.2,2.7c0,0,0,0.1,0.1,0.1c0,0,0,0.1,0.1,0.1c0,0.1,0.1,0.1,0.1,0.1h0.1
                c0.1,0,0.2,0,0.2-0.1c0.1-0.1,0.1-0.2,0.1-0.2L114.4,209L114.4,209z M128.7,209c-0.3-0.1-0.6-0.2-0.9-0.2c-0.3-0.1-0.6-0.2-0.9-0.2
                c-0.4-0.1-0.8-0.1-1.2-0.2c-0.4,0-0.8-0.1-1.2-0.1c-2.2,0-3.9,0.5-5.2,1.6c-1.3,1.1-2,2.5-2,4.3c0,1.1,0.2,2.1,0.8,2.9
                c0.5,0.8,1.5,1.6,2.7,2.3c0.2,0.2,0.4,0.2,0.6,0.4c0.2,0.1,0.5,0.2,0.7,0.4l1.9,0.9c0.1,0.1,0.2,0.1,0.2,0.2s0.2,0.1,0.2,0.2
                c0.9,0.5,1.6,1,2,1.6c0.4,0.5,0.6,1.1,0.6,1.8c0,0.9-0.4,1.6-1.1,2.3s-1.6,0.9-2.6,0.9s-1.9-0.2-2.6-0.5c-0.6-0.3-1.1-0.8-1.4-1.4
                l-1.2-2.7c0-0.1-0.1-0.2-0.1-0.2c-0.1,0-0.1-0.1-0.2-0.1c-0.1,0-0.2,0-0.2,0.1c-0.1,0.1-0.1,0.2-0.1,0.2l0.1,5.7
                c0.5,0.2,0.9,0.2,1.3,0.4c0.5,0.1,0.9,0.2,1.4,0.2c0.5,0.1,0.9,0.1,1.4,0.2s0.9,0.1,1.3,0.1c1.9,0,3.6-0.5,4.8-1.6
                c1.2-1.1,1.8-2.5,1.8-4.3c0-1.1-0.3-2.1-0.9-2.9s-1.5-1.6-2.8-2.3c-0.2-0.1-0.3-0.2-0.4-0.2c-0.2-0.1-0.3-0.2-0.4-0.2l-2-1
                c-0.5-0.2-0.9-0.5-1.2-0.7c-0.4-0.2-0.7-0.5-0.9-0.6c-0.5-0.4-0.8-0.7-0.9-1.1c-0.2-0.4-0.3-0.8-0.3-1.2c0-0.9,0.4-1.8,1.1-2.4
                c0.8-0.6,1.6-0.9,2.7-0.9c0.8,0,1.4,0.1,1.9,0.3c0.5,0.2,0.8,0.6,1,1.1l1.2,2.7c0,0,0,0.1,0.1,0.1c0,0,0,0.1,0.1,0.1
                c0,0.1,0.1,0.1,0.1,0.1h0.1c0.1,0,0.2,0,0.2-0.1c0.1-0.1,0.1-0.2,0.1-0.2L128.7,209L128.7,209z M138.3,210.7c0.2,0,0.4,0,0.5,0
                c0.2,0,0.2,0,0.2,0c0.6,0,1.1,0,1.4,0c0.3,0,0.5,0,0.5,0c1.2,0,2,0,2.5,0.1c0.4,0,0.8,0.1,0.9,0.2c0.2,0.1,0.3,0.2,0.5,0.4
                c0.2,0.2,0.3,0.5,0.4,0.8l0.6,1.6c0.1,0.1,0.1,0.2,0.2,0.2c0.1,0,0.1,0.1,0.2,0.1c0.1,0,0.2,0,0.2-0.1c0.1-0.1,0.1-0.2,0.1-0.2
                l-0.1-5.1c-0.7,0.1-1.5,0.2-2.5,0.2c-1,0.1-2.1,0.1-3.1,0.2c-0.5,0-1.2,0-1.7,0.1c-0.5,0-1.1,0-1.6,0c-0.1,0-0.3,0-0.7,0
                c-0.4,0-1,0-1.9,0c-0.5,0-0.9,0-1.2,0s-0.5,0-0.5,0c-0.1,0-0.2,0-0.2,0s-0.2,0-0.2,0c-0.2,0-0.4,0-0.5,0.1s-0.2,0.1-0.2,0.2
                c0,0.1,0,0.1,0.1,0.2c0.1,0,0.1,0.1,0.2,0.1l1.7,0.6c0.2,0.1,0.2,0.1,0.4,0.2c0.1,0.1,0.2,0.1,0.3,0.2c0.1,0,0.1,0.1,0.2,0.1
                l0.1,0.1c0.1,0,0.2,0.1,0.2,0.1c0.1,0.1,0.1,0.1,0.2,0.2c0.1,0.1,0.1,0.2,0.1,0.3c0,0.2,0,0.5,0,0.9c0,0.2,0,0.2,0,0.4s0,0.3,0,0.5
                l0.1,2.4c0,0.6,0,1.1,0,1.5c0,0.4,0,0.6,0,0.9v3.9v2.5c0,0.5,0,0.9,0,1.2c0,0.3,0,0.5,0,0.7v1.4c0,0.2,0,0.4-0.1,0.5
                s-0.2,0.3-0.5,0.4c-0.1,0.1-0.2,0.2-0.4,0.2c-0.2,0.1-0.3,0.2-0.5,0.2l-1.7,0.6c-0.1,0-0.2,0.1-0.2,0.1c-0.1,0.1-0.1,0.1-0.1,0.2
                s0,0.2,0.1,0.2c0.1,0.1,0.2,0.1,0.2,0.1h13.4c0.6,0,1-0.1,1.1-0.3c0.2-0.2,0.2-0.6,0.2-1.3l0.1-3.3c0-0.1,0-0.2-0.1-0.2
                c0-0.1-0.1-0.1-0.2-0.1c-0.1,0-0.1,0-0.2,0.1c-0.1,0.1-0.1,0.1-0.1,0.2l-0.8,1.7c0,0.1-0.1,0.1-0.1,0.2s-0.1,0.1-0.1,0.2
                c-0.2,0.5-0.5,0.8-0.9,0.9c-0.4,0.1-1.2,0.2-2.5,0.2c-1,0-1.9,0-2.5-0.1c-0.7,0-1-0.1-1.1-0.2c-0.1-0.1-0.2-0.2-0.2-0.5
                c-0.1-0.3-0.1-0.9-0.1-1.7v-5.4c0.2,0,0.3,0,0.4,0s0.2,0,0.2,0s0.2,0,0.5,0s0.6,0,1.1,0s0.8,0,1.1,0c0.2,0,0.5,0,0.5,0
                c0.2,0,0.3,0,0.4,0c0.1,0,0.2,0,0.2,0c0.2,0,0.5,0,0.5,0.1c0.2,0.1,0.2,0.2,0.4,0.3c0.1,0.1,0.2,0.2,0.2,0.3
                c0.1,0.1,0.2,0.2,0.2,0.4l0.8,1.7c0.1,0.1,0.1,0.2,0.2,0.2c0.1,0,0.1,0.1,0.2,0.1c0.1,0,0.2,0,0.2-0.1c0-0.1,0.1-0.2,0.1-0.2v-6.4
                c0-0.1,0-0.2-0.1-0.2c0-0.1-0.1-0.1-0.2-0.1c0,0,0,0-0.1,0c0,0,0,0-0.1,0c0,0-0.1,0-0.1,0.1c0,0-0.1,0.1-0.1,0.2l-0.6,1
                c0,0,0,0.1-0.1,0.1c0,0,0,0.1-0.1,0.1c-0.2,0.3-0.5,0.5-0.9,0.6c-0.4,0.1-1.1,0.2-2.1,0.2c-0.4,0-0.8,0-1.2,0c-0.5,0-0.9,0-1.4-0.1
                L138.3,210.7L138.3,210.7z M156,220.4h0.2l5.7,5.8c0.7,0.8,1.3,1.4,1.8,1.8c0.5,0.5,1,0.8,1.4,1c0.5,0.2,0.9,0.3,1.4,0.4
                c0.5,0.1,1.1,0.1,1.8,0.1c0.5,0,0.9,0,1.1-0.1c0.2-0.1,0.3-0.2,0.3-0.4c0-0.1,0-0.2,0-0.2c0-0.1-0.1-0.1-0.2-0.2s-0.2-0.1-0.2-0.1
                c-0.1,0-0.2-0.1-0.3-0.1c-0.2-0.1-0.5-0.2-0.7-0.3c-0.2-0.1-0.5-0.2-0.7-0.4c-0.4-0.2-0.8-0.5-1.2-0.9c-0.4-0.4-0.9-0.9-1.5-1.5
                l-5.2-5.3c1.6-0.4,2.8-1,3.7-2c0.9-1,1.4-2.2,1.4-3.6c0-1.9-0.6-3.4-1.9-4.3c-1.2-1-3-1.5-5.4-1.5l-7.4,0.1c-0.1,0-0.2,0-0.2,0.1
                s-0.1,0.2-0.1,0.2c0,0.1,0,0.2,0.1,0.2c0,0.1,0.1,0.1,0.2,0.2l2.3,0.8c0.2,0.1,0.3,0.2,0.4,0.2c0.1,0.1,0.2,0.1,0.2,0.2
                c0.1,0.1,0.1,0.1,0.1,0.2s0,0.2,0,0.2c0,0.1,0,0.2,0,0.3c0,0.2,0,0.4,0,0.6l0.1,1.3c0,0.1,0,0.2,0,0.5c0,0.2,0,0.4,0,0.7l0.1,8.5
                c0,0.5,0,0.8,0,1.2c0,0.3,0,0.6,0,0.9v1.5c0,0.2,0,0.2,0,0.4c0,0.1,0,0.2,0,0.3s0,0.2,0,0.2c0,0.1,0,0.2,0,0.2c0,0.1,0,0.2,0,0.2
                c0,0.1,0,0.1-0.1,0.2l0,0c0,0,0,0-0.1,0.1c0,0,0,0-0.1,0.1c0,0-0.1,0.1-0.2,0.1c-0.1,0-0.2,0.1-0.3,0.2l-2.5,1
                c-0.1,0-0.2,0.1-0.2,0.1c-0.1,0.1-0.1,0.1-0.1,0.2s0,0.2,0.1,0.2c0.1,0.1,0.2,0.1,0.2,0.1h9c0.1,0,0.2,0,0.2-0.1s0.1-0.2,0.1-0.2
                c0-0.1,0-0.2-0.1-0.2c-0.1-0.1-0.1-0.1-0.2-0.1l-2.3-0.9c0,0,0,0-0.1,0c0,0,0,0-0.1,0s-0.2-0.1-0.2-0.1c-0.1-0.1-0.2-0.1-0.2-0.2
                c-0.1,0-0.1-0.1-0.1-0.1l-0.1-0.1l0,0c0-0.1,0-0.1-0.1-0.2c0-0.1,0-0.2,0-0.2c0-0.1,0-0.2,0-0.2s0-0.2,0-0.2L156,220.4L156,220.4
                L156,220.4L156,220.4L156,220.4L156,220.4z M156,218.6v-6.9c0-0.5,0.2-0.8,0.3-0.9c0.2-0.2,0.6-0.2,1.3-0.2c1.2,0,2.1,0.4,2.9,1.1
                s1.2,1.6,1.2,2.7c0,1.2-0.5,2.3-1.3,3c-0.9,0.7-2.1,1.1-3.7,1.2H156L156,218.6z M180,209.3C180.1,209.3,180.1,209.2,180,209.3
                l0.2-0.2c0,0,0-0.1,0.1-0.1V209c0-0.1,0-0.2-0.1-0.2c-0.1-0.1-0.2-0.1-0.2-0.1h-8.9c-0.1,0-0.2,0-0.2,0.1c-0.1,0.1-0.1,0.1-0.1,0.2
                s0,0.1,0,0.1s0,0.1,0.1,0.1c0,0,0.1,0,0.1,0.1c0,0,0.1,0,0.1,0.1l2.3,0.9c0.1,0,0.2,0.1,0.2,0.1c0.1,0.1,0.2,0.1,0.2,0.1
                c0.1,0.1,0.1,0.1,0.2,0.1s0.1,0.1,0.1,0.1c0.1,0.1,0.1,0.2,0.1,0.4s0.1,0.6,0.1,1.2v1.4c0,0.1,0,0.2,0,0.3c0,0.1,0,0.2,0,0.4
                s0,0.2,0,0.4s0,0.3,0,0.5v7.1c0,0.2,0,0.4,0,0.5s0,0.3,0,0.5s0,0.2,0,0.4s0,0.2,0,0.3c0,0.2,0,0.4,0,0.6c0,0.2,0,0.5,0,0.7
                c0,0.2,0,0.3,0,0.5s0,0.3,0,0.5s0,0.3,0,0.5s0,0.3,0,0.4c0,0.2-0.1,0.2-0.1,0.4c-0.1,0.1-0.2,0.2-0.2,0.2c-0.1,0-0.2,0.1-0.2,0.1
                c-0.1,0-0.2,0.1-0.2,0.1l-2.2,0.9c-0.1,0-0.2,0.1-0.2,0.1c0,0.1-0.1,0.1-0.1,0.2c0,0.1,0,0.2,0.1,0.2c0.1,0.1,0.2,0.1,0.2,0.1h8.9
                c0.1,0,0.2,0,0.2-0.1c0.1-0.1,0.1-0.1,0.1-0.2c0-0.1,0-0.1-0.1-0.2c0-0.1-0.1-0.1-0.2-0.1l-2.1-0.9l-0.5-0.2c0,0-0.1,0-0.1-0.1
                c0,0-0.1,0-0.1-0.1c-0.1,0-0.1-0.1-0.1-0.1l-0.1-0.1c-0.1-0.1-0.1-0.2-0.1-0.4s-0.1-0.5-0.1-1.2v-1.6v-1.9v-7.7c0-0.5,0-0.9,0-1.1
                c0-0.2,0-0.5,0-0.5v-1.4c0-0.5,0-0.9,0-1c0-0.2,0.1-0.2,0.1-0.3s0.1-0.1,0.1-0.1l0.1-0.1c0.1,0,0.1-0.1,0.2-0.1s0.2-0.1,0.2-0.1
                L180,209.3L180,209.3z M188.9,210.7c0.2,0,0.4,0,0.5,0c0.2,0,0.2,0,0.2,0c0.6,0,1.1,0,1.4,0c0.3,0,0.5,0,0.5,0c1.2,0,2,0,2.5,0.1
                c0.4,0,0.8,0.1,0.9,0.2c0.2,0.1,0.3,0.2,0.5,0.4c0.2,0.2,0.3,0.5,0.4,0.8l0.6,1.6c0.1,0.1,0.1,0.2,0.2,0.2s0.1,0.1,0.2,0.1
                s0.2,0,0.2-0.1c0.1-0.1,0.1-0.2,0.1-0.2l-0.1-5.1c-0.7,0.1-1.5,0.2-2.5,0.2c-1,0.1-2.1,0.1-3.1,0.2c-0.5,0-1.2,0-1.7,0.1
                c-0.5,0-1.1,0-1.6,0c-0.1,0-0.3,0-0.7,0c-0.4,0-1,0-1.9,0c-0.5,0-0.9,0-1.2,0c-0.3,0-0.5,0-0.5,0s-0.2,0-0.2,0c-0.1,0-0.2,0-0.2,0
                c-0.2,0-0.4,0-0.5,0.1s-0.2,0.1-0.2,0.2c0,0.1,0,0.1,0.1,0.2c0.1,0,0.1,0.1,0.2,0.1l1.7,0.6c0.2,0.1,0.2,0.1,0.4,0.2
                c0.1,0.1,0.2,0.1,0.3,0.2c0.1,0,0.1,0.1,0.2,0.1l0.1,0.1c0.1,0,0.2,0.1,0.2,0.1c0.1,0.1,0.1,0.1,0.2,0.2s0.1,0.2,0.1,0.3
                c0,0.2,0,0.5,0,0.9c0,0.2,0,0.2,0,0.4s0,0.3,0,0.5l0.1,2.4c0,0.6,0,1.1,0,1.5c0,0.4,0,0.6,0,0.9v3.9v2.5c0,0.5,0,0.9,0,1.2
                c0,0.3,0,0.5,0,0.7v1.4c0,0.2,0,0.4-0.1,0.5s-0.2,0.3-0.5,0.4c-0.1,0.1-0.2,0.2-0.4,0.2c-0.2,0.1-0.3,0.2-0.5,0.2l-1.7,0.6
                c-0.1,0-0.2,0.1-0.2,0.1c-0.1,0.1-0.1,0.1-0.1,0.2s0,0.2,0.1,0.2c0.1,0.1,0.2,0.1,0.2,0.1h13.4c0.6,0,1-0.1,1.1-0.3
                c0.2-0.2,0.2-0.6,0.2-1.3l0.1-3.3c0-0.1,0-0.2-0.1-0.2c0-0.1-0.1-0.1-0.2-0.1c-0.1,0-0.1,0-0.2,0.1s-0.1,0.1-0.1,0.2l-0.8,1.7
                c0,0.1-0.1,0.1-0.1,0.2s-0.1,0.1-0.1,0.2c-0.2,0.5-0.5,0.8-0.9,0.9c-0.4,0.1-1.2,0.2-2.5,0.2c-1,0-1.9,0-2.5-0.1
                c-0.7,0-1-0.1-1.1-0.2s-0.2-0.2-0.2-0.5c-0.1-0.3-0.1-0.9-0.1-1.7v-5.4c0.2,0,0.3,0,0.4,0s0.2,0,0.2,0c0.1,0,0.2,0,0.5,0
                s0.6,0,1.1,0c0.5,0,0.8,0,1.1,0c0.2,0,0.5,0,0.5,0c0.2,0,0.3,0,0.4,0s0.2,0,0.2,0c0.2,0,0.5,0,0.5,0.1c0.2,0.1,0.2,0.2,0.4,0.3
                c0.1,0.1,0.2,0.2,0.2,0.3c0.1,0.1,0.2,0.2,0.2,0.4l0.8,1.7c0.1,0.1,0.1,0.2,0.2,0.2s0.1,0.1,0.2,0.1s0.2,0,0.2-0.1
                c0-0.1,0.1-0.2,0.1-0.2v-6.4c0-0.1,0-0.2-0.1-0.2c-0.1-0.1-0.1-0.1-0.2-0.1c0,0,0,0-0.1,0c0,0,0,0-0.1,0c0,0-0.1,0-0.1,0.1
                c0,0-0.1,0.1-0.1,0.2l-0.6,1c0,0,0,0.1-0.1,0.1c0,0,0,0.1-0.1,0.1c-0.2,0.3-0.5,0.5-0.9,0.6c-0.4,0.1-1.1,0.2-2.1,0.2
                c-0.4,0-0.8,0-1.2,0c-0.5,0-0.9,0-1.4-0.1L188.9,210.7L188.9,210.7z M52.7,242.6l3.4,0.1c0.7,0,1.2,0.1,1.4,0.2s0.5,0.3,0.7,0.6
                c0,0.1,0.1,0.1,0.1,0.2s0.1,0.1,0.1,0.2l1.3,3.2c0.1,0.1,0.1,0.2,0.2,0.2c0.1,0,0.1,0.1,0.2,0.1c0.1,0,0.2,0,0.2-0.1
                c0-0.1,0.1-0.2,0.1-0.3v-6.9c0-0.2,0-0.3-0.1-0.4c-0.1-0.1-0.2-0.1-0.2-0.1c-0.1,0-0.1,0-0.2,0c0,0-0.1,0-0.1,0.1l-0.2,0.2
                c-0.1,0.1-0.2,0.1-0.2,0.2c-0.1,0-0.1,0.1-0.2,0.1c-0.4,0.2-0.8,0.4-1.3,0.5s-1.3,0.1-2.6,0.1h-8.5c-1.2,0-2,0-2.6-0.1
                s-1-0.2-1.2-0.3l-0.3-0.3l-0.2-0.2l-0.1-0.1c0,0-0.1,0-0.2,0c-0.1,0-0.2,0-0.2,0.1c-0.1,0.1-0.1,0.2-0.1,0.3l0.1,7
                c0,0.1,0,0.2,0.1,0.2c0.1,0.1,0.1,0.1,0.2,0.1c0.1,0,0.2,0,0.2-0.1c0.1,0,0.1-0.1,0.2-0.2l1.4-3.5v-0.1c0,0,0-0.1,0.1-0.1
                c0.1-0.3,0.2-0.5,0.4-0.5s0.5-0.1,0.9-0.2h4.2v16.5v1.1c0,0.3,0,0.5,0,0.6c0,0.2,0,0.2,0,0.3c0,0.1-0.1,0.2-0.1,0.2
                c0,0.1-0.1,0.2-0.1,0.2c0,0.1-0.1,0.1-0.1,0.2l-0.1,0.1c-0.1,0-0.2,0.1-0.2,0.1c-0.1,0-0.2,0.1-0.3,0.2l-2.9,1.2
                c-0.1,0-0.2,0.1-0.2,0.1c-0.1,0.1-0.1,0.1-0.1,0.2c0,0.1,0,0.2,0.1,0.2c0.1,0.1,0.2,0.1,0.3,0.1h10.4c0.1,0,0.2,0,0.3-0.1
                c0.1-0.1,0.1-0.1,0.1-0.2c0-0.1,0-0.2-0.1-0.2c0-0.1-0.1-0.1-0.2-0.1l-2.7-1c-0.2-0.1-0.2-0.1-0.3-0.2c-0.1-0.1-0.2-0.1-0.2-0.2
                c-0.1,0-0.2-0.1-0.2-0.1c0-0.1-0.1-0.1-0.1-0.2c0-0.1-0.1-0.4-0.1-0.9c0-0.5-0.1-1.1-0.1-1.9L52.7,242.6L52.7,242.6z M69.4,253.1
                c0.4-0.1,0.9-0.1,1.5-0.1c0.5,0,1.2,0,2,0h5.5h1.7c0.4,0,0.7,0,0.9,0c0.2,0,0.4,0,0.5,0c0.1,0,0.1,0,0.2,0c0.1,0,0.2,0,0.3,0v6.2
                c0,0.1,0,0.1,0,0.2c0,0.1,0,0.2,0,0.2c0,0.1,0,0.2,0,0.2c0,0.1,0,0.2,0,0.3c0,0.1,0,0.2,0,0.3c0,0.1,0,0.2,0,0.3c0,0.1,0,0.2,0,0.2
                s0,0.2,0,0.2c0,0.2,0,0.3-0.1,0.4c0,0.1-0.1,0.2-0.2,0.2c-0.1,0.1-0.2,0.1-0.2,0.2c-0.1,0.1-0.2,0.1-0.3,0.2l-2.4,1
                c-0.1,0-0.2,0.1-0.2,0.2c0,0.1-0.1,0.2-0.1,0.2c0,0.1,0,0.2,0.1,0.2c0.1,0.1,0.2,0.1,0.2,0.1h9.9c0.1,0,0.2,0,0.2-0.1
                c0.1-0.1,0.1-0.2,0.1-0.2s0-0.2-0.1-0.2c0-0.1-0.1-0.1-0.2-0.2l-2.5-1c-0.2-0.1-0.3-0.2-0.4-0.2c-0.1-0.1-0.2-0.1-0.2-0.2
                c-0.1,0-0.1-0.1-0.1-0.1l-0.1-0.1v-0.1c0-0.1-0.1-0.3-0.1-0.5s-0.1-0.7-0.1-1.2c0-0.1,0-0.2,0-0.5c0-0.3,0-0.7,0-1.2
                c0-0.3,0-0.6,0-0.9s0-0.7,0-1.1l-0.1-7.9c0-0.5,0-0.9,0-1.3c0-0.4,0-0.6,0-0.8c0-0.5,0-0.9,0-1.2c0-0.3,0-0.5,0-0.5s0-0.2,0-0.2
                c0-0.1,0-0.2,0-0.2c0-0.6,0-1,0.1-1.2c0.1-0.2,0.2-0.3,0.5-0.5l0.1-0.1h0.1l2.6-1c0.1-0.1,0.2-0.1,0.2-0.2s0.1-0.1,0.1-0.2
                s0-0.2-0.1-0.2c-0.1-0.1-0.2-0.1-0.2-0.1h-9.9c-0.2,0-0.2,0-0.2,0.1c-0.1,0.1-0.1,0.1-0.1,0.2c0,0.1,0,0.2,0.1,0.2
                c0,0.1,0.1,0.1,0.2,0.2l2.5,0.9c0.2,0.1,0.3,0.2,0.5,0.2c0.2,0.1,0.2,0.2,0.2,0.2c0.1,0.1,0.2,0.2,0.2,0.5c0,0.2,0.1,0.5,0.1,1
                l0.1,6.5c-0.4,0.1-0.9,0.1-1.5,0.2c-0.5,0-1.3,0-2.3,0h-5.4c-0.7,0-1.3,0-1.9-0.1c-0.6,0-1.2-0.1-1.6-0.2v-6.3v-0.5
                c0-0.2,0-0.3,0-0.5s0-0.2,0-0.2c0-0.1,0-0.2,0-0.2c0-0.1,0-0.1,0.1-0.2s0.2-0.1,0.2-0.2s0.2-0.2,0.4-0.2l2.5-1
                c0.1-0.1,0.2-0.1,0.2-0.2c0-0.1,0.1-0.1,0.1-0.2s0-0.2-0.1-0.2c-0.1-0.1-0.2-0.1-0.3-0.1h-9.9c-0.2,0-0.2,0-0.3,0.1
                c-0.1,0.1-0.1,0.2-0.1,0.2c0,0.1,0,0.2,0.1,0.2c0.1,0.1,0.1,0.1,0.2,0.2l2.6,1c0.2,0.1,0.3,0.2,0.5,0.2c0.2,0.1,0.2,0.2,0.2,0.2
                c0.1,0.1,0.1,0.2,0.1,0.5c0,0.2,0.1,0.7,0.1,1.2v1.9c0,0.3,0,0.7,0,1c0,0.3,0,0.6,0,0.9l0.1,8.4c0,0.3,0,0.6,0,0.9
                c0,0.3,0,0.6,0,0.9v1.8c0,0.5-0.1,1-0.1,1.2c0,0.2-0.1,0.4-0.2,0.5l-0.1,0.1c0,0,0,0.1-0.1,0.1s-0.2,0.1-0.2,0.1
                c-0.1,0.1-0.2,0.1-0.4,0.2l-2.4,0.9c-0.1,0-0.2,0.1-0.2,0.2c-0.1,0.1-0.1,0.2-0.1,0.2s0,0.2,0.1,0.2s0.2,0.1,0.3,0.1h9.9
                c0.2,0,0.2,0,0.3-0.1c0.1-0.1,0.1-0.2,0.1-0.2c0-0.1,0-0.2-0.1-0.2c0-0.1-0.1-0.1-0.2-0.2l-2.6-0.9c-0.1,0-0.1-0.1-0.2-0.1
                c0,0-0.1,0-0.1-0.1c-0.3-0.1-0.5-0.2-0.5-0.5c-0.1-0.2-0.2-0.5-0.2-0.9c0-0.2,0-0.3,0-0.5c0-0.1,0-0.2,0-0.2L69.4,253.1L69.4,253.1
                L69.4,253.1z M98.7,242.6c0.2,0,0.4,0,0.5,0c0.2,0,0.2,0,0.3,0c0.7,0,1.2,0,1.6,0s0.5,0,0.5,0c1.4,0,2.3,0,2.8,0.1
                c0.5,0,0.9,0.1,1.1,0.2c0.2,0.1,0.4,0.2,0.5,0.5c0.2,0.2,0.3,0.5,0.5,0.9l0.7,1.7c0.1,0.1,0.1,0.2,0.2,0.2c0.1,0,0.1,0.1,0.2,0.1
                c0.1,0,0.2,0,0.2-0.1s0.1-0.2,0.1-0.3l-0.1-5.8c-0.8,0.1-1.7,0.2-2.8,0.2c-1.2,0.1-2.3,0.2-3.5,0.2c-0.6,0-1.3,0.1-1.9,0.1
                c-0.6,0-1.2,0-1.8,0c-0.1,0-0.3,0-0.8,0s-1.2,0-2.1,0c-0.5,0-1,0-1.4,0c-0.3,0-0.5,0-0.6,0s-0.2,0-0.2,0s-0.2,0-0.2,0
                c-0.2,0-0.4,0-0.5,0.1s-0.2,0.2-0.2,0.2c0,0.1,0,0.2,0.1,0.2s0.1,0.1,0.2,0.2l1.9,0.7c0.2,0.1,0.3,0.1,0.4,0.2s0.2,0.1,0.3,0.2
                c0.1,0,0.2,0.1,0.2,0.1s0.1,0.1,0.2,0.1c0.1,0,0.2,0.1,0.2,0.2c0.1,0.1,0.1,0.1,0.2,0.2c0.1,0.1,0.1,0.2,0.1,0.4s0,0.5,0,1
                c0,0.2,0,0.3,0,0.5s0,0.3,0,0.5l0.1,2.7c0,0.7,0,1.2,0,1.7c0,0.5,0,0.7,0,0.9v4.4v2.8c0,0.5,0,0.9,0,1.3c0,0.3,0,0.6,0,0.8v1.6
                c0,0.2-0.1,0.5-0.2,0.6c-0.1,0.2-0.2,0.3-0.5,0.5c-0.2,0.1-0.2,0.2-0.4,0.2c-0.2,0.1-0.4,0.2-0.6,0.2l-1.9,0.7
                c-0.1,0-0.2,0.1-0.2,0.1c-0.1,0.1-0.1,0.1-0.1,0.2c0,0.1,0,0.2,0.1,0.2s0.2,0.1,0.3,0.1h15c0.7,0,1.1-0.1,1.2-0.3
                c0.2-0.2,0.2-0.7,0.3-1.6l0.1-3.7c0-0.1,0-0.2-0.1-0.2c0-0.1-0.1-0.1-0.2-0.1c-0.1,0-0.2,0-0.2,0.1c0,0-0.1,0.1-0.2,0.2l-0.9,1.9
                c0,0.1-0.1,0.1-0.1,0.2c0,0.1-0.1,0.1-0.1,0.2c-0.2,0.5-0.6,0.9-1.1,1c-0.5,0.2-1.4,0.2-2.8,0.2c-1.2,0-2.1,0-2.8-0.1
                c-0.8,0-1.2-0.1-1.2-0.2c-0.1-0.1-0.2-0.3-0.2-0.6c-0.1-0.4-0.1-1-0.1-1.9v-5.9c0.2,0,0.3,0,0.5,0c0.2,0,0.2,0,0.2,0
                c0.1,0,0.3,0,0.5,0c0.3,0,0.7,0,1.2,0s0.9,0,1.2,0s0.5,0,0.6,0c0.2,0,0.3,0,0.4,0s0.2,0,0.2,0c0.3,0,0.5,0,0.6,0.1
                c0.2,0.1,0.3,0.2,0.4,0.3c0.1,0.1,0.2,0.2,0.2,0.3c0.1,0.2,0.2,0.3,0.2,0.5l0.9,1.9c0.1,0.1,0.1,0.2,0.2,0.2c0.1,0,0.1,0.1,0.2,0.1
                c0.1,0,0.2,0,0.2-0.1c0-0.1,0.1-0.2,0.1-0.2v-7.2c0-0.1,0-0.2-0.1-0.3c0-0.1-0.1-0.1-0.2-0.1h-0.1c0,0,0,0-0.1,0c0,0-0.1,0-0.1,0.1
                c0,0-0.1,0.1-0.1,0.2l-0.7,1.1l-0.1,0.1c0,0,0,0.1-0.1,0.1c-0.2,0.3-0.6,0.5-1,0.7c-0.4,0.1-1.2,0.2-2.4,0.2c-0.5,0-0.9,0-1.4,0
                s-1,0-1.6-0.1L98.7,242.6L98.7,242.6z M126.6,254.6l2.3,5.9c0.1,0.2,0.2,0.4,0.2,0.5c0.1,0.2,0.1,0.3,0.1,0.5c0,0.1,0,0.2,0,0.2
                s-0.1,0.1-0.2,0.2c-0.1,0.1-0.1,0.1-0.2,0.2c-0.1,0.1-0.2,0.1-0.4,0.2l-2.1,0.9c-0.1,0-0.2,0.1-0.2,0.2c-0.1,0.1-0.1,0.2-0.1,0.2
                c0,0.1,0,0.2,0.1,0.2c0.1,0.1,0.2,0.1,0.3,0.1h9.3c0.2,0,0.2,0,0.3-0.1c0.1-0.1,0.1-0.2,0.1-0.2c0-0.1,0-0.1,0-0.2l-0.1-0.1
                l-0.1-0.1c0,0-0.1,0-0.1-0.1l-1.8-0.8c-0.2-0.1-0.3-0.2-0.5-0.2c-0.2-0.1-0.2-0.1-0.3-0.2c-0.1-0.1-0.1-0.1-0.2-0.2
                c0,0-0.1-0.1-0.1-0.2l-0.1-0.1c0,0,0-0.1-0.1-0.1c-0.2-0.3-0.4-0.8-0.7-1.6c-0.3-0.8-0.7-1.6-1.1-2.6c-0.1-0.1-0.1-0.2-0.2-0.3
                c-0.1-0.1-0.1-0.2-0.2-0.3l-4.4-11.1c-0.2-0.5-0.4-0.9-0.5-1.3c-0.2-0.4-0.3-0.9-0.5-1.2c-0.1-0.3-0.2-0.6-0.3-0.9
                c-0.1-0.3-0.2-0.6-0.3-0.9c-0.1-0.2-0.2-0.4-0.2-0.5c-0.1-0.2-0.1-0.4-0.2-0.5h-2.6l-0.2,0.5c-0.2,0.5-0.3,1.2-0.5,1.9
                c-0.2,0.7-0.5,1.4-0.7,2.1c-0.1,0.2-0.2,0.5-0.3,0.8c-0.1,0.3-0.2,0.5-0.3,0.8c-0.1,0.2-0.2,0.3-0.2,0.5c-0.1,0.2-0.1,0.3-0.2,0.4
                l-4.5,11.7c-0.2,0.3-0.2,0.5-0.3,0.8c-0.1,0.2-0.2,0.4-0.2,0.5l-0.5,1.2c0,0.1-0.1,0.2-0.1,0.2c0,0.1-0.1,0.1-0.1,0.2
                c-0.1,0.1-0.1,0.2-0.2,0.2c-0.1,0.1-0.1,0.1-0.2,0.2c-0.1,0.1-0.2,0.1-0.3,0.2c-0.1,0.1-0.2,0.2-0.4,0.2l-2,0.9
                c-0.1,0-0.1,0.1-0.1,0.1s-0.1,0-0.1,0.1c-0.1,0-0.1,0.1-0.1,0.1s0,0.1,0,0.2c0,0.1,0.1,0.2,0.2,0.2c0.1,0.1,0.2,0.1,0.3,0.1h8.7
                c0.2,0,0.2,0,0.3-0.1c0.1-0.1,0.1-0.2,0.1-0.2s0-0.1,0-0.2l-0.1-0.1l-0.1-0.1c0,0-0.1,0-0.1-0.1l-2.1-0.9c-0.2-0.1-0.3-0.2-0.4-0.2
                c-0.1-0.1-0.2-0.1-0.2-0.2c-0.1,0-0.1-0.1-0.1-0.1c0-0.1,0-0.1,0-0.2c0-0.1,0-0.1,0-0.2c0-0.1,0-0.1,0.1-0.2l0.2-0.7l2.2-5.8
                c0.8-0.1,1.5-0.1,2-0.1c0.5,0,1.1,0,1.4,0c0.4,0,0.9,0,1.5,0C125.1,254.6,125.7,254.6,126.6,254.6L126.6,254.6z M125.6,252.2
                c-0.5,0-0.9,0-1.3,0c-0.4,0-0.7,0-0.9,0c-0.4,0-0.8,0-1.2,0c-0.5,0-1-0.1-1.8-0.1l2.6-6.6L125.6,252.2L125.6,252.2z M147.8,242.6
                l3.4,0.1c0.7,0,1.2,0.1,1.4,0.2c0.2,0.1,0.5,0.3,0.7,0.6c0,0.1,0.1,0.1,0.1,0.2s0.1,0.1,0.1,0.2l1.3,3.2c0.1,0.1,0.1,0.2,0.2,0.2
                s0.1,0.1,0.2,0.1c0.1,0,0.2,0,0.2-0.1c0-0.1,0.1-0.2,0.1-0.3v-6.9c0-0.2,0-0.3-0.1-0.4s-0.2-0.1-0.2-0.1s-0.1,0-0.2,0
                c0,0-0.1,0-0.1,0.1l-0.2,0.2c-0.1,0.1-0.2,0.1-0.2,0.2c-0.1,0-0.1,0.1-0.2,0.1c-0.4,0.2-0.8,0.4-1.3,0.5s-1.3,0.1-2.6,0.1h-8.3
                c-1.2,0-2,0-2.6-0.1s-1-0.2-1.2-0.3l-0.3-0.3l-0.2-0.2l-0.1-0.1c0,0-0.1,0-0.2,0c-0.1,0-0.2,0-0.2,0.1s-0.1,0.2-0.1,0.3l0.1,7
                c0,0.1,0,0.2,0.1,0.2c0.1,0.1,0.1,0.1,0.2,0.1c0.1,0,0.2,0,0.2-0.1c0.1,0,0.1-0.1,0.2-0.2l1.4-3.5v-0.1c0,0,0-0.1,0.1-0.1
                c0.1-0.3,0.2-0.5,0.4-0.5c0.2-0.1,0.5-0.1,0.9-0.2h4.2v16.5v1.1c0,0.3,0,0.5,0,0.6c0,0.2,0,0.2,0,0.3c0,0.1-0.1,0.2-0.1,0.2
                c0,0.1-0.1,0.2-0.1,0.2c0,0.1-0.1,0.1-0.1,0.2l-0.1,0.1c-0.1,0-0.2,0.1-0.2,0.1s-0.2,0.1-0.3,0.2l-2.9,1.2c-0.1,0-0.2,0.1-0.2,0.1
                c-0.1,0.1-0.1,0.1-0.1,0.2c0,0.1,0,0.2,0.1,0.2s0.2,0.1,0.3,0.1h10.4c0.1,0,0.2,0,0.3-0.1c0.1-0.1,0.1-0.1,0.1-0.2
                c0-0.1,0-0.2-0.1-0.2c0-0.1-0.1-0.1-0.2-0.1l-2.7-1c-0.2-0.1-0.2-0.1-0.3-0.2c-0.1-0.1-0.2-0.1-0.2-0.2c-0.1,0-0.2-0.1-0.2-0.1
                c0-0.1-0.1-0.1-0.1-0.2c0-0.1-0.1-0.4-0.1-0.9c0-0.5-0.1-1.1-0.1-1.9L147.8,242.6L147.8,242.6z M164.5,253.6h0.2l6.4,6.5
                c0.8,0.9,1.5,1.6,2,2c0.5,0.5,1.1,0.9,1.6,1.2c0.5,0.2,1,0.4,1.6,0.5c0.5,0.1,1.2,0.2,1.9,0.2c0.5,0,1-0.1,1.2-0.2
                c0.2-0.1,0.3-0.2,0.3-0.5c0-0.1,0-0.2,0-0.2c0-0.1-0.1-0.2-0.2-0.2c-0.1-0.1-0.2-0.1-0.2-0.2c-0.1,0-0.2-0.1-0.3-0.2
                c-0.3-0.1-0.5-0.2-0.8-0.3c-0.2-0.2-0.5-0.2-0.8-0.4c-0.5-0.3-0.9-0.6-1.3-1.1c-0.5-0.5-1-1-1.6-1.7l-5.8-5.8
                c1.8-0.4,3.2-1.2,4.2-2.3c1-1.1,1.6-2.5,1.6-4.1c0-2.1-0.7-3.7-2.1-4.8c-1.4-1.1-3.4-1.7-6-1.7l-8.3,0.1c-0.1,0-0.2,0-0.2,0.1
                s-0.2,0.2-0.2,0.2c0,0.1,0,0.2,0.1,0.2c0,0.1,0.1,0.1,0.2,0.2l2.6,0.9c0.2,0.1,0.3,0.2,0.5,0.2c0.1,0.1,0.2,0.1,0.2,0.2
                c0.1,0.1,0.1,0.1,0.1,0.2s0,0.2,0,0.2c0,0.1,0,0.2,0,0.4c0,0.2,0,0.4,0,0.7l0.1,1.5c0,0.1,0,0.3,0,0.5s0,0.5,0,0.8l0.1,9.5
                c0,0.5,0,0.9,0,1.3c0,0.4,0,0.7,0,1v1.6c0,0.2,0,0.3,0,0.4c0,0.2,0,0.2,0,0.3c0,0.1,0,0.2,0,0.2s0,0.2,0,0.2c0,0.1,0,0.2,0,0.2
                s0,0.2-0.1,0.2l0,0l-0.1,0.1c0,0,0,0-0.1,0.1c0,0-0.1,0.1-0.2,0.1s-0.2,0.1-0.3,0.2l-2.7,1.2c-0.1,0-0.2,0.1-0.2,0.1
                c-0.1,0.1-0.1,0.1-0.1,0.2c0,0.1,0,0.2,0.1,0.2s0.2,0.1,0.3,0.1h10.1c0.1,0,0.2,0,0.3-0.1c0.1-0.1,0.1-0.2,0.1-0.2
                c0-0.1,0-0.2-0.1-0.2c-0.1-0.1-0.1-0.1-0.2-0.2l-2.6-0.9h-0.1c0,0,0,0-0.1,0s-0.2-0.1-0.2-0.1c-0.1-0.1-0.2-0.1-0.2-0.2
                c-0.1,0-0.1-0.1-0.2-0.1l-0.1-0.1l0,0c0-0.1-0.1-0.1-0.1-0.2c0-0.1,0-0.2,0-0.3c0-0.1,0-0.2,0-0.2c0-0.1,0-0.2,0-0.2L164.5,253.6
                L164.5,253.6L164.5,253.6L164.5,253.6L164.5,253.6L164.5,253.6z M164.5,251.5v-7.7c0-0.5,0.2-0.9,0.4-1.1c0.2-0.2,0.7-0.2,1.6-0.2
                c1.2,0,2.3,0.4,3.2,1.2c0.9,0.8,1.3,1.9,1.3,3c0,1.5-0.5,2.6-1.5,3.4s-2.4,1.2-4.2,1.3L164.5,251.5L164.5,251.5z M187.8,242.6
                c0.2,0,0.4,0,0.5,0c0.2,0,0.2,0,0.3,0c0.7,0,1.2,0,1.6,0c0.4,0,0.5,0,0.5,0c1.4,0,2.3,0,2.8,0.1c0.5,0,0.9,0.1,1.1,0.2
                c0.2,0.1,0.4,0.2,0.5,0.5c0.2,0.2,0.3,0.5,0.5,0.9l0.7,1.7c0.1,0.1,0.1,0.2,0.2,0.2s0.1,0.1,0.2,0.1s0.2,0,0.2-0.1
                c0.1-0.1,0.1-0.2,0.1-0.3l-0.1-5.8c-0.8,0.1-1.7,0.2-2.8,0.2c-1.2,0.1-2.3,0.2-3.5,0.2c-0.6,0-1.3,0.1-1.9,0.1s-1.2,0-1.8,0
                c-0.1,0-0.3,0-0.8,0c-0.5,0-1.2,0-2.1,0c-0.5,0-1,0-1.4,0c-0.4,0-0.5,0-0.6,0c-0.1,0-0.2,0-0.2,0c-0.1,0-0.2,0-0.2,0
                c-0.2,0-0.4,0-0.5,0.1s-0.2,0.2-0.2,0.2c0,0.1,0,0.2,0.1,0.2s0.1,0.1,0.2,0.2l1.9,0.7c0.2,0.1,0.3,0.1,0.4,0.2s0.2,0.1,0.3,0.2
                c0.1,0,0.2,0.1,0.2,0.1s0.1,0.1,0.2,0.1s0.2,0.1,0.2,0.2c0.1,0.1,0.1,0.1,0.2,0.2s0.1,0.2,0.1,0.4s0,0.5,0,1c0,0.2,0,0.3,0,0.5
                s0,0.3,0,0.5l0.1,2.7c0,0.7,0,1.2,0,1.7c0,0.5,0,0.7,0,0.9v4.4v2.8c0,0.5,0,0.9,0,1.3c0,0.3,0,0.6,0,0.8v1.6c0,0.2-0.1,0.5-0.2,0.6
                s-0.2,0.3-0.5,0.5c-0.1,0.1-0.2,0.2-0.4,0.2s-0.4,0.2-0.6,0.2l-1.9,0.7c-0.1,0-0.2,0.1-0.2,0.1c-0.1,0.1-0.1,0.1-0.1,0.2
                c0,0.1,0,0.2,0.1,0.2s0.2,0.1,0.3,0.1h15c0.7,0,1.1-0.1,1.2-0.3s0.2-0.7,0.3-1.6l0.1-3.7c0-0.1,0-0.2-0.1-0.2c0-0.1-0.1-0.1-0.2-0.1
                c-0.1,0-0.2,0-0.2,0.1c0,0.1-0.1,0.1-0.2,0.2l-0.9,1.9c0,0.1-0.1,0.1-0.1,0.2c0,0.1-0.1,0.1-0.1,0.2c-0.2,0.5-0.6,0.9-1.1,1
                c-0.5,0.2-1.4,0.2-2.8,0.2c-1.2,0-2.1,0-2.8-0.1c-0.8,0-1.2-0.1-1.2-0.2c-0.2-0.1-0.2-0.3-0.2-0.6c-0.1-0.4-0.1-1-0.1-1.9v-5.9
                c0.2,0,0.3,0,0.5,0s0.2,0,0.2,0c0.1,0,0.3,0,0.5,0c0.3,0,0.7,0,1.2,0c0.5,0,0.9,0,1.2,0c0.3,0,0.5,0,0.6,0c0.2,0,0.3,0,0.4,0
                s0.2,0,0.2,0c0.3,0,0.5,0,0.6,0.1c0.2,0.1,0.3,0.2,0.4,0.3c0.1,0.1,0.2,0.2,0.2,0.3c0.1,0.2,0.2,0.3,0.2,0.5l0.9,1.9
                c0.1,0.1,0.1,0.2,0.2,0.2s0.1,0.1,0.2,0.1c0.1,0,0.2,0,0.2-0.1c0-0.1,0.1-0.2,0.1-0.2v-7.2c0-0.1,0-0.2-0.1-0.3
                c0-0.1-0.1-0.1-0.2-0.1h-0.1c0,0,0,0-0.1,0c0,0-0.1,0-0.1,0.1c0,0-0.1,0.1-0.1,0.2l-0.7,1.1l-0.1,0.1c0,0,0,0.1-0.1,0.1
                c-0.2,0.3-0.6,0.5-1,0.7c-0.4,0.1-1.2,0.2-2.4,0.2c-0.5,0-0.9,0-1.4,0c-0.5,0-1,0-1.6-0.1L187.8,242.6L187.8,242.6z M119.1,233.7
                c-0.3-0.3-0.8-0.4-1.4-0.4l0,0l0,0l0,0l0,0h-0.2c0,0,0,0-0.1,0c0,0,0,0-0.1,0h-0.1c0,0,0,0-0.1,0h-0.8l0,0l0,0l0,0l0,0l0.3,0.2l0,0
                l0,0c0,0,0,0,0.1,0v0.1c0,0.1,0,0.2,0,0.3c0,0.2,0,0.3,0,0.5v1v0.1c0,0.1,0,0.2,0,0.2c0,0.1,0,0.1,0,0.1v0.1c0,0,0,0,0,0.1l0,0l0,0
                l0,0l0,0l0,0v0.1c0,0,0,0-0.1,0.1l0,0c0,0,0,0-0.1,0l-0.3,0.1l0,0l0,0l0,0l0,0h0.7h0.1c0.1,0,0.1,0,0.2,0h0.2h0.1h0.1h0.1h0.1
                c0.5,0,0.9-0.2,1.3-0.5c0.3-0.3,0.5-0.7,0.5-1.2C119.5,234.4,119.4,233.9,119.1,233.7z M118.8,235.9c-0.3,0.2-0.7,0.4-1.2,0.4
                c-0.2,0-0.4,0-0.5-0.1c-0.1,0-0.2-0.1-0.2-0.2v-2.3c0-0.2,0.1-0.2,0.2-0.2c0.1,0,0.3-0.1,0.5-0.1c0.5,0,0.8,0.2,1.1,0.4
                c0.3,0.2,0.4,0.6,0.4,1C119.3,235.3,119.2,235.6,118.8,235.9z M123.3,233.3C123.3,233.3,123.4,233.3,123.3,233.3
                C123.4,233.3,123.4,233.3,123.3,233.3C123.4,233.3,123.4,233.3,123.3,233.3C123.3,233.2,123.3,233.2,123.3,233.3l-1.3-0.1l0,0l0,0
                l0,0l0,0l0,0l0,0l0.4,0.2l0,0c0.1,0,0.1,0.1,0.1,0.1c0,0.1,0,0.2,0,0.4c0,0.1,0,0.1,0,0.2v0.1v0.8c0,0.4-0.1,0.7-0.2,0.9
                c-0.2,0.2-0.3,0.3-0.6,0.3c-0.3,0-0.5-0.1-0.6-0.3c-0.2-0.2-0.2-0.5-0.2-1v-0.7c0-0.1,0-0.1,0-0.2s0-0.1,0-0.2v-0.2
                c0-0.1,0-0.1,0-0.1v-0.1l0,0l0,0l0,0c0,0,0,0,0.1,0l0.4-0.2l0,0l0,0l0,0l0,0h-1.3l0,0l0,0l0,0l0,0l0.4,0.2c0.1,0,0.1,0.1,0.1,0.2
                s0,0.3,0,0.7v0.7l0,0c0,0,0,0,0,0.1c0,0.5,0.1,0.9,0.3,1.1c0.2,0.2,0.5,0.4,0.9,0.4c0.2,0,0.4,0,0.5-0.1c0.2-0.1,0.3-0.2,0.4-0.3
                c0,0,0,0,0-0.1c0,0,0,0,0-0.1c0.1-0.2,0.2-0.2,0.2-0.4s0-0.4,0.1-0.7V234v-0.2v-0.2c0-0.1,0-0.2,0-0.2s0-0.1,0.1-0.1l0,0l0,0l0,0
                L123.3,233.3L123.3,233.3L123.3,233.3z M41.9,235.2v-0.6h68.8v0.7L41.9,235.2L41.9,235.2z M129,235.2v-0.6h68.8v0.7L129,235.2
                L129,235.2z"/>
              </svg>